<svg xmlns="http://www.w3.org/2000/svg" xmlns:xlink="http://www.w3.org/1999/xlink" width="500" zoomAndPan="magnify" viewBox="0 0 375 374.999991" height="500" preserveAspectRatio="xMidYMid meet" version="1.0"><defs><g/><clipPath id="a088ee8313"><path d="M 130.347656 119.136719 L 233.703125 119.136719 L 233.703125 187.386719 L 130.347656 187.386719 Z M 130.347656 119.136719 " clip-rule="nonzero"/></clipPath><clipPath id="fbee5e41a2"><path d="M 223.40625 172.707031 C 224.21875 172.207031 224.96875 171.675781 225.664062 171.078125 C 226.351562 170.472656 226.984375 169.832031 227.542969 169.15625 C 229.539062 166.710938 230.628906 163.171875 229.878906 160.054688 C 229.710938 159.308594 229.433594 158.589844 229.0625 157.921875 C 228.699219 157.25 228.261719 156.613281 227.734375 156.054688 C 225.667969 153.753906 222.570312 152.449219 219.386719 152.238281 C 216.1875 151.976562 212.886719 152.710938 209.820312 154.054688 C 209.429688 154.207031 209.054688 154.40625 208.671875 154.582031 C 208.496094 154.671875 208.265625 154.777344 208.132812 154.847656 L 207.515625 155.171875 C 207.113281 155.394531 206.796875 155.570312 206.414062 155.796875 C 206.042969 156.015625 205.679688 156.242188 205.316406 156.472656 C 203.859375 157.398438 202.460938 158.441406 201.089844 159.535156 C 198.347656 161.730469 195.773438 164.242188 193.191406 166.847656 C 190.59375 169.445312 187.996094 172.160156 185.171875 174.800781 C 182.339844 177.421875 179.257812 179.972656 175.746094 182.109375 C 172.25 184.253906 168.265625 185.867188 164.117188 186.695312 C 162.046875 187.101562 159.941406 187.332031 157.855469 187.375 L 157.460938 187.382812 L 157.171875 187.382812 L 156.300781 187.367188 C 156.09375 187.367188 155.761719 187.34375 155.476562 187.328125 C 155.1875 187.308594 154.882812 187.292969 154.605469 187.265625 C 153.515625 187.152344 152.425781 187.007812 151.355469 186.765625 C 147.058594 185.851562 142.953125 183.890625 139.59375 181.007812 C 136.222656 178.144531 133.585938 174.402344 132.050781 170.253906 C 131.265625 168.1875 130.785156 166.015625 130.554688 163.839844 L 130.503906 163.324219 L 130.480469 162.976562 L 130.441406 162.28125 L 130.429688 162.109375 L 130.425781 161.890625 L 130.417969 161.449219 L 130.410156 160.566406 C 130.441406 159.464844 130.515625 158.371094 130.675781 157.285156 C 130.992188 155.113281 131.558594 152.972656 132.40625 150.949219 C 133.261719 148.929688 134.367188 147.019531 135.675781 145.273438 C 136.988281 143.527344 138.527344 141.964844 140.21875 140.597656 C 141.917969 139.234375 143.796875 138.109375 145.773438 137.214844 C 147.75 136.320312 149.839844 135.679688 151.964844 135.316406 C 152.496094 135.21875 153.03125 135.144531 153.570312 135.09375 C 154.105469 135.027344 154.640625 135.003906 155.179688 134.976562 C 155.714844 134.933594 156.25 134.960938 156.789062 134.953125 L 157.078125 134.953125 L 157.253906 134.964844 L 157.601562 134.984375 L 158.300781 135.023438 L 155.164062 136.910156 C 156.539062 134.339844 158.21875 131.941406 160.195312 129.824219 C 162.164062 127.707031 164.382812 125.832031 166.808594 124.292969 C 169.234375 122.757812 171.847656 121.535156 174.558594 120.667969 C 177.269531 119.796875 180.089844 119.320312 182.898438 119.175781 C 184.300781 119.113281 185.710938 119.125 187.097656 119.265625 L 188.089844 119.351562 L 189.15625 119.5 C 189.875 119.582031 190.554688 119.726562 191.234375 119.867188 C 192.59375 120.152344 193.925781 120.546875 195.226562 121.003906 C 195.878906 121.222656 196.511719 121.503906 197.152344 121.753906 C 197.78125 122.03125 198.394531 122.339844 199.007812 122.636719 C 199.609375 122.972656 200.214844 123.289062 200.796875 123.644531 C 201.367188 124.015625 201.960938 124.347656 202.503906 124.753906 C 203.054688 125.152344 203.617188 125.53125 204.136719 125.964844 L 204.921875 126.601562 C 205.179688 126.816406 205.425781 127.050781 205.679688 127.273438 C 206.183594 127.714844 206.652344 128.195312 207.113281 128.683594 C 207.589844 129.152344 208.015625 129.671875 208.453125 130.171875 C 208.898438 130.667969 209.277344 131.21875 209.6875 131.734375 C 210.078125 132.273438 210.429688 132.835938 210.800781 133.378906 C 209.886719 132.425781 208.957031 131.503906 207.960938 130.65625 C 207.457031 130.238281 206.972656 129.808594 206.441406 129.433594 L 205.660156 128.855469 C 205.398438 128.667969 205.121094 128.5 204.855469 128.316406 C 204.585938 128.140625 204.324219 127.953125 204.050781 127.78125 L 203.222656 127.289062 C 202.679688 126.949219 202.101562 126.667969 201.535156 126.371094 C 200.976562 126.0625 200.378906 125.832031 199.804688 125.5625 C 199.222656 125.308594 198.617188 125.097656 198.03125 124.867188 L 196.226562 124.292969 C 195.613281 124.140625 195.015625 123.953125 194.398438 123.828125 C 193.171875 123.5625 191.9375 123.355469 190.699219 123.25 C 190.078125 123.191406 189.457031 123.132812 188.863281 123.128906 L 187.964844 123.101562 L 186.984375 123.125 C 185.742188 123.125 184.515625 123.273438 183.304688 123.441406 C 180.878906 123.800781 178.515625 124.460938 176.292969 125.40625 C 174.0625 126.339844 171.964844 127.550781 170.0625 128.992188 C 168.148438 130.425781 166.433594 132.097656 164.957031 133.945312 C 163.488281 135.792969 162.226562 137.796875 161.253906 139.925781 L 160.394531 141.804688 L 158.117188 141.808594 L 157.070312 141.808594 L 156.894531 141.8125 C 157.066406 141.8125 156.921875 141.8125 156.949219 141.816406 L 156.914062 141.816406 L 156.839844 141.820312 C 156.445312 141.855469 156.046875 141.851562 155.65625 141.910156 C 155.265625 141.957031 154.875 141.992188 154.488281 142.070312 C 154.097656 142.128906 153.714844 142.207031 153.332031 142.296875 C 151.804688 142.632812 150.324219 143.164062 148.941406 143.875 C 146.167969 145.28125 143.773438 147.382812 141.996094 149.890625 C 141.121094 151.152344 140.394531 152.511719 139.847656 153.933594 C 139.316406 155.363281 138.9375 156.847656 138.753906 158.355469 C 138.65625 159.109375 138.625 159.875 138.617188 160.632812 L 138.632812 161.144531 L 138.636719 161.398438 L 138.640625 161.53125 L 138.652344 161.703125 L 138.707031 162.398438 L 138.738281 162.746094 C 138.746094 162.859375 138.726562 162.640625 138.730469 162.675781 L 138.738281 162.710938 L 138.746094 162.78125 L 138.765625 162.921875 C 138.953125 164.4375 139.320312 165.917969 139.859375 167.324219 C 140.925781 170.144531 142.730469 172.667969 145.046875 174.613281 C 147.347656 176.566406 150.144531 177.957031 153.128906 178.609375 C 153.875 178.78125 154.632812 178.882812 155.394531 178.972656 C 155.582031 178.992188 155.742188 178.996094 155.917969 179.011719 C 156.097656 179.023438 156.226562 179.042969 156.488281 179.046875 L 157.1875 179.066406 L 157.363281 179.070312 C 157.183594 179.066406 157.335938 179.070312 157.304688 179.066406 L 157.421875 179.066406 L 157.726562 179.0625 C 159.363281 179.0625 160.980469 178.910156 162.570312 178.632812 C 165.746094 178.070312 168.78125 176.882812 171.695312 175.242188 C 174.605469 173.597656 177.367188 171.472656 180.074219 169.132812 C 182.792969 166.804688 185.457031 164.253906 188.238281 161.703125 C 191.023438 159.160156 193.941406 156.621094 197.144531 154.332031 C 198.742188 153.183594 200.425781 152.125 202.179688 151.164062 C 202.617188 150.921875 203.058594 150.6875 203.507812 150.464844 C 203.945312 150.242188 204.457031 150 204.886719 149.800781 L 205.523438 149.515625 C 205.8125 149.386719 206.011719 149.3125 206.257812 149.210938 C 206.734375 149.019531 207.195312 148.8125 207.6875 148.652344 C 211.519531 147.253906 215.773438 146.582031 219.992188 147.214844 C 224.183594 147.8125 228.332031 149.910156 231 153.40625 C 231.664062 154.269531 232.214844 155.230469 232.644531 156.238281 C 233.082031 157.242188 233.382812 158.308594 233.53125 159.394531 C 233.691406 160.472656 233.710938 161.578125 233.5625 162.648438 C 233.519531 163.164062 233.359375 163.789062 233.242188 164.292969 L 233.03125 164.957031 L 232.960938 165.191406 L 232.875 165.378906 L 232.707031 165.746094 C 231.78125 167.695312 230.316406 169.246094 228.707031 170.40625 C 227.898438 170.988281 227.039062 171.472656 226.144531 171.847656 C 225.253906 172.230469 224.332031 172.53125 223.40625 172.707031 Z M 223.40625 172.707031 " clip-rule="nonzero"/></clipPath><clipPath id="af8189a33c"><path d="M 223.40625 172.707031 C 224.21875 172.207031 224.96875 171.675781 225.664062 171.078125 C 226.351562 170.472656 226.984375 169.832031 227.542969 169.15625 C 229.539062 166.710938 230.628906 163.171875 229.878906 160.054688 C 229.710938 159.308594 229.433594 158.589844 229.0625 157.921875 C 228.699219 157.25 228.261719 156.613281 227.734375 156.054688 C 225.667969 153.753906 222.570312 152.449219 219.386719 152.238281 C 216.1875 151.976562 212.886719 152.710938 209.820312 154.054688 C 209.429688 154.207031 209.054688 154.40625 208.671875 154.582031 C 208.496094 154.671875 208.265625 154.777344 208.132812 154.847656 L 207.515625 155.171875 C 207.113281 155.394531 206.796875 155.570312 206.414062 155.796875 C 206.042969 156.015625 205.679688 156.242188 205.316406 156.472656 C 203.859375 157.398438 202.460938 158.441406 201.089844 159.535156 C 198.347656 161.730469 195.773438 164.242188 193.191406 166.847656 C 190.59375 169.445312 187.996094 172.160156 185.171875 174.800781 C 182.339844 177.421875 179.257812 179.972656 175.746094 182.109375 C 172.25 184.253906 168.265625 185.867188 164.117188 186.695312 C 162.046875 187.101562 159.941406 187.332031 157.855469 187.375 L 157.460938 187.382812 L 157.171875 187.382812 L 156.300781 187.367188 C 156.09375 187.367188 155.761719 187.34375 155.476562 187.328125 C 155.1875 187.308594 154.882812 187.292969 154.605469 187.265625 C 153.515625 187.152344 152.425781 187.007812 151.355469 186.765625 C 147.058594 185.851562 142.953125 183.890625 139.59375 181.007812 C 136.222656 178.144531 133.585938 174.402344 132.050781 170.253906 C 131.265625 168.1875 130.785156 166.015625 130.554688 163.839844 L 130.503906 163.324219 L 130.480469 162.976562 L 130.441406 162.28125 L 130.429688 162.109375 L 130.425781 161.890625 L 130.417969 161.449219 L 130.410156 160.566406 C 130.441406 159.464844 130.515625 158.371094 130.675781 157.285156 C 130.992188 155.113281 131.558594 152.972656 132.40625 150.949219 C 133.261719 148.929688 134.367188 147.019531 135.675781 145.273438 C 136.988281 143.527344 138.527344 141.964844 140.21875 140.597656 C 141.917969 139.234375 143.796875 138.109375 145.773438 137.214844 C 147.75 136.320312 149.839844 135.679688 151.964844 135.316406 C 152.496094 135.21875 153.03125 135.144531 153.570312 135.09375 C 154.105469 135.027344 154.640625 135.003906 155.179688 134.976562 C 155.714844 134.933594 156.25 134.960938 156.789062 134.953125 L 157.078125 134.953125 L 157.253906 134.964844 L 157.601562 134.984375 L 158.300781 135.023438 L 155.164062 136.910156 C 156.539062 134.339844 158.21875 131.941406 160.195312 129.824219 C 162.164062 127.707031 164.382812 125.832031 166.808594 124.292969 C 169.234375 122.757812 171.847656 121.535156 174.558594 120.667969 C 177.269531 119.796875 180.089844 119.320312 182.898438 119.175781 C 184.300781 119.113281 185.710938 119.125 187.097656 119.265625 L 188.089844 119.351562 L 189.15625 119.5 C 189.875 119.582031 190.554688 119.726562 191.234375 119.867188 C 192.59375 120.152344 193.925781 120.546875 195.226562 121.003906 C 195.878906 121.222656 196.511719 121.503906 197.152344 121.753906 C 197.78125 122.03125 198.394531 122.339844 199.007812 122.636719 C 199.609375 122.972656 200.214844 123.289062 200.796875 123.644531 C 201.367188 124.015625 201.960938 124.347656 202.503906 124.753906 C 203.054688 125.152344 203.617188 125.53125 204.136719 125.964844 L 204.921875 126.601562 C 205.179688 126.816406 205.425781 127.050781 205.679688 127.273438 C 206.183594 127.714844 206.652344 128.195312 207.113281 128.683594 C 207.589844 129.152344 208.015625 129.671875 208.453125 130.171875 C 208.898438 130.667969 209.277344 131.21875 209.6875 131.734375 C 210.078125 132.273438 210.429688 132.835938 210.800781 133.378906 C 209.886719 132.425781 208.957031 131.503906 207.960938 130.65625 C 207.457031 130.238281 206.972656 129.808594 206.441406 129.433594 L 205.660156 128.855469 C 205.398438 128.667969 205.121094 128.5 204.855469 128.316406 C 204.585938 128.140625 204.324219 127.953125 204.050781 127.78125 L 203.222656 127.289062 C 202.679688 126.949219 202.101562 126.667969 201.535156 126.371094 C 200.976562 126.0625 200.378906 125.832031 199.804688 125.5625 C 199.222656 125.308594 198.617188 125.097656 198.03125 124.867188 L 196.226562 124.292969 C 195.613281 124.140625 195.015625 123.953125 194.398438 123.828125 C 193.171875 123.5625 191.9375 123.355469 190.699219 123.25 C 190.078125 123.191406 189.457031 123.132812 188.863281 123.128906 L 187.964844 123.101562 L 186.984375 123.125 C 185.742188 123.125 184.515625 123.273438 183.304688 123.441406 C 180.878906 123.800781 178.515625 124.460938 176.292969 125.40625 C 174.0625 126.339844 171.964844 127.550781 170.0625 128.992188 C 168.148438 130.425781 166.433594 132.097656 164.957031 133.945312 C 163.488281 135.792969 162.226562 137.796875 161.253906 139.925781 L 160.394531 141.804688 L 158.117188 141.808594 L 157.070312 141.808594 L 156.894531 141.8125 C 157.066406 141.8125 156.921875 141.8125 156.949219 141.816406 L 156.914062 141.816406 L 156.839844 141.820312 C 156.445312 141.855469 156.046875 141.851562 155.65625 141.910156 C 155.265625 141.957031 154.875 141.992188 154.488281 142.070312 C 154.097656 142.128906 153.714844 142.207031 153.332031 142.296875 C 151.804688 142.632812 150.324219 143.164062 148.941406 143.875 C 146.167969 145.28125 143.773438 147.382812 141.996094 149.890625 C 141.121094 151.152344 140.394531 152.511719 139.847656 153.933594 C 139.316406 155.363281 138.9375 156.847656 138.753906 158.355469 C 138.65625 159.109375 138.625 159.875 138.617188 160.632812 L 138.632812 161.144531 L 138.636719 161.398438 L 138.640625 161.53125 L 138.652344 161.703125 L 138.707031 162.398438 L 138.738281 162.746094 C 138.746094 162.859375 138.726562 162.640625 138.730469 162.675781 L 138.738281 162.710938 L 138.746094 162.78125 L 138.765625 162.921875 C 138.953125 164.4375 139.320312 165.917969 139.859375 167.324219 C 140.925781 170.144531 142.730469 172.667969 145.046875 174.613281 C 147.347656 176.566406 150.144531 177.957031 153.128906 178.609375 C 153.875 178.78125 154.632812 178.882812 155.394531 178.972656 C 155.582031 178.992188 155.742188 178.996094 155.917969 179.011719 C 156.097656 179.023438 156.226562 179.042969 156.488281 179.046875 L 157.1875 179.066406 L 157.363281 179.070312 C 157.183594 179.066406 157.335938 179.070312 157.304688 179.066406 L 157.421875 179.066406 L 157.726562 179.0625 C 159.363281 179.0625 160.980469 178.910156 162.570312 178.632812 C 165.746094 178.070312 168.78125 176.882812 171.695312 175.242188 C 174.605469 173.597656 177.367188 171.472656 180.074219 169.132812 C 182.792969 166.804688 185.457031 164.253906 188.238281 161.703125 C 191.023438 159.160156 193.941406 156.621094 197.144531 154.332031 C 198.742188 153.183594 200.425781 152.125 202.179688 151.164062 C 202.617188 150.921875 203.058594 150.6875 203.507812 150.464844 C 203.945312 150.242188 204.457031 150 204.886719 149.800781 L 205.523438 149.515625 C 205.8125 149.386719 206.011719 149.3125 206.257812 149.210938 C 206.734375 149.019531 207.195312 148.8125 207.6875 148.652344 C 211.519531 147.253906 215.773438 146.582031 219.992188 147.214844 C 224.183594 147.8125 228.332031 149.910156 231 153.40625 C 231.664062 154.269531 232.214844 155.230469 232.644531 156.238281 C 233.082031 157.242188 233.382812 158.308594 233.53125 159.394531 C 233.691406 160.472656 233.710938 161.578125 233.5625 162.648438 C 233.519531 163.164062 233.359375 163.789062 233.242188 164.292969 L 233.03125 164.957031 L 232.960938 165.191406 L 232.875 165.378906 L 232.707031 165.746094 C 231.78125 167.695312 230.316406 169.246094 228.707031 170.40625 C 227.898438 170.988281 227.039062 171.472656 226.144531 171.847656 C 225.253906 172.230469 224.332031 172.53125 223.40625 172.707031 " clip-rule="nonzero"/></clipPath><clipPath id="336dc3d3ee"><path d="M 265.050781 139.566406 L 161.355469 71.894531 L 99.070312 166.933594 L 202.761719 234.601562 Z M 265.050781 139.566406 " clip-rule="nonzero"/></clipPath><radialGradient gradientTransform="matrix(-0.547911, 0.836027, -0.837807, -0.546747, 204.53162, 116.073697)" gradientUnits="userSpaceOnUse" r="94.472343" cx="0" id="9f401961f4" cy="0" fx="0" fy="0"><stop stop-opacity="1" stop-color="rgb(31.604004%, 67.652893%, 89.7995%)" offset="0"/><stop stop-opacity="1" stop-color="rgb(31.404114%, 67.501831%, 89.608765%)" offset="0.00390625"/><stop stop-opacity="1" stop-color="rgb(31.399536%, 67.312622%, 89.408875%)" offset="0.0078125"/><stop stop-opacity="1" stop-color="rgb(31.217957%, 67.112732%, 89.399719%)" offset="0.0117188"/><stop stop-opacity="1" stop-color="rgb(31.018066%, 66.921997%, 89.222717%)" offset="0.015625"/><stop stop-opacity="1" stop-color="rgb(30.999756%, 66.522217%, 88.999939%)" offset="0.0195312"/><stop stop-opacity="1" stop-color="rgb(30.999756%, 66.281128%, 88.777161%)" offset="0.0234375"/><stop stop-opacity="1" stop-color="rgb(30.999756%, 66.069031%, 88.586426%)" offset="0.0273438"/><stop stop-opacity="1" stop-color="rgb(30.990601%, 65.686035%, 88.386536%)" offset="0.03125"/><stop stop-opacity="1" stop-color="rgb(30.79071%, 65.4953%, 88.198853%)" offset="0.0351562"/><stop stop-opacity="1" stop-color="rgb(30.599976%, 65.296936%, 88.198853%)" offset="0.0390625"/><stop stop-opacity="1" stop-color="rgb(30.599976%, 65.100098%, 88.005066%)" offset="0.0429688"/><stop stop-opacity="1" stop-color="rgb(30.599976%, 64.909363%, 87.805176%)" offset="0.046875"/><stop stop-opacity="1" stop-color="rgb(30.599976%, 64.709473%, 87.799072%)" offset="0.0507812"/><stop stop-opacity="1" stop-color="rgb(30.599976%, 64.518738%, 87.663269%)" offset="0.0546875"/><stop stop-opacity="1" stop-color="rgb(30.4245%, 64.318848%, 87.513733%)" offset="0.0585938"/><stop stop-opacity="1" stop-color="rgb(30.223083%, 64.099121%, 87.478638%)" offset="0.0625"/><stop stop-opacity="1" stop-color="rgb(30.183411%, 63.883972%, 87.278748%)" offset="0.0664062"/><stop stop-opacity="1" stop-color="rgb(29.983521%, 63.673401%, 87.098694%)" offset="0.0703125"/><stop stop-opacity="1" stop-color="rgb(29.798889%, 63.288879%, 87.09259%)" offset="0.0742188"/><stop stop-opacity="1" stop-color="rgb(29.798889%, 63.098145%, 86.8927%)" offset="0.078125"/><stop stop-opacity="1" stop-color="rgb(29.798889%, 62.901306%, 86.698914%)" offset="0.0820312"/><stop stop-opacity="1" stop-color="rgb(29.798889%, 62.557983%, 86.698914%)" offset="0.0859375"/><stop stop-opacity="1" stop-color="rgb(29.611206%, 62.405396%, 86.51123%)" offset="0.0898438"/><stop stop-opacity="1" stop-color="rgb(29.411316%, 62.216187%, 86.31134%)" offset="0.09375"/><stop stop-opacity="1" stop-color="rgb(29.399109%, 62.016296%, 86.299133%)" offset="0.0976562"/><stop stop-opacity="1" stop-color="rgb(29.399109%, 61.799622%, 86.099243%)" offset="0.101562"/><stop stop-opacity="1" stop-color="rgb(29.399109%, 61.579895%, 85.899353%)" offset="0.105469"/><stop stop-opacity="1" stop-color="rgb(29.399109%, 61.380005%, 85.884094%)" offset="0.109375"/><stop stop-opacity="1" stop-color="rgb(29.389954%, 61.18927%, 85.684204%)" offset="0.113281"/><stop stop-opacity="1" stop-color="rgb(29.190063%, 60.98938%, 85.494995%)" offset="0.117188"/><stop stop-opacity="1" stop-color="rgb(28.999329%, 60.798645%, 85.295105%)" offset="0.121094"/><stop stop-opacity="1" stop-color="rgb(28.999329%, 60.603333%, 85.099792%)" offset="0.125"/><stop stop-opacity="1" stop-color="rgb(28.999329%, 60.403442%, 85.099792%)" offset="0.128906"/><stop stop-opacity="1" stop-color="rgb(28.999329%, 60.212708%, 84.913635%)" offset="0.132812"/><stop stop-opacity="1" stop-color="rgb(28.999329%, 60.012817%, 84.712219%)" offset="0.136719"/><stop stop-opacity="1" stop-color="rgb(28.822327%, 59.822083%, 84.698486%)" offset="0.140625"/><stop stop-opacity="1" stop-color="rgb(28.622437%, 59.422302%, 84.498596%)" offset="0.144531"/><stop stop-opacity="1" stop-color="rgb(28.581238%, 59.181213%, 84.281921%)" offset="0.148438"/><stop stop-opacity="1" stop-color="rgb(28.381348%, 58.969116%, 84.082031%)" offset="0.152344"/><stop stop-opacity="1" stop-color="rgb(28.199768%, 58.586121%, 83.898926%)" offset="0.15625"/><stop stop-opacity="1" stop-color="rgb(28.199768%, 58.395386%, 83.898926%)" offset="0.160156"/><stop stop-opacity="1" stop-color="rgb(28.199768%, 58.197021%, 83.898926%)" offset="0.164062"/><stop stop-opacity="1" stop-color="rgb(28.199768%, 58.000183%, 83.705139%)" offset="0.167969"/><stop stop-opacity="1" stop-color="rgb(28.199768%, 57.809448%, 83.505249%)" offset="0.171875"/><stop stop-opacity="1" stop-color="rgb(28.015137%, 57.609558%, 83.499146%)" offset="0.175781"/><stop stop-opacity="1" stop-color="rgb(27.815247%, 57.4646%, 83.319092%)" offset="0.179688"/><stop stop-opacity="1" stop-color="rgb(27.799988%, 57.315063%, 83.119202%)" offset="0.183594"/><stop stop-opacity="1" stop-color="rgb(27.799988%, 57.098389%, 83.078003%)" offset="0.1875"/><stop stop-opacity="1" stop-color="rgb(27.799988%, 56.898499%, 82.878113%)" offset="0.191406"/><stop stop-opacity="1" stop-color="rgb(27.799988%, 56.887817%, 82.69043%)" offset="0.195312"/><stop stop-opacity="1" stop-color="rgb(27.799988%, 56.681824%, 82.540894%)" offset="0.199219"/><stop stop-opacity="1" stop-color="rgb(27.798462%, 56.292725%, 82.398987%)" offset="0.203125"/><stop stop-opacity="1" stop-color="rgb(27.650452%, 56.098938%, 82.398987%)" offset="0.207031"/><stop stop-opacity="1" stop-color="rgb(27.500916%, 55.906677%, 82.206726%)" offset="0.210938"/><stop stop-opacity="1" stop-color="rgb(27.49939%, 55.706787%, 82.006836%)" offset="0.214844"/><stop stop-opacity="1" stop-color="rgb(27.49939%, 55.516052%, 81.816101%)" offset="0.21875"/><stop stop-opacity="1" stop-color="rgb(27.49939%, 55.137634%, 81.616211%)" offset="0.222656"/><stop stop-opacity="1" stop-color="rgb(27.2995%, 54.896545%, 81.599426%)" offset="0.226562"/><stop stop-opacity="1" stop-color="rgb(27.099609%, 54.675293%, 81.57959%)" offset="0.230469"/><stop stop-opacity="1" stop-color="rgb(27.084351%, 54.484558%, 81.3797%)" offset="0.234375"/><stop stop-opacity="1" stop-color="rgb(26.88446%, 54.284668%, 81.199646%)" offset="0.238281"/><stop stop-opacity="1" stop-color="rgb(26.699829%, 54.093933%, 81.195068%)" offset="0.242188"/><stop stop-opacity="1" stop-color="rgb(26.699829%, 53.894043%, 80.995178%)" offset="0.246094"/><stop stop-opacity="1" stop-color="rgb(26.699829%, 53.69873%, 80.799866%)" offset="0.25"/><stop stop-opacity="1" stop-color="rgb(26.699829%, 53.507996%, 80.799866%)" offset="0.253906"/><stop stop-opacity="1" stop-color="rgb(26.699829%, 53.308105%, 80.618286%)" offset="0.257812"/><stop stop-opacity="1" stop-color="rgb(26.699829%, 53.121948%, 80.41687%)" offset="0.265625"/><stop stop-opacity="1" stop-color="rgb(26.498413%, 52.722168%, 80.198669%)" offset="0.269531"/><stop stop-opacity="1" stop-color="rgb(26.298523%, 52.485657%, 79.981995%)" offset="0.273438"/><stop stop-opacity="1" stop-color="rgb(26.298523%, 52.328491%, 79.782104%)" offset="0.277344"/><stop stop-opacity="1" stop-color="rgb(26.295471%, 51.991272%, 79.595947%)" offset="0.285156"/><stop stop-opacity="1" stop-color="rgb(26.097107%, 51.799011%, 79.397583%)" offset="0.289062"/><stop stop-opacity="1" stop-color="rgb(25.900269%, 51.605225%, 79.200745%)" offset="0.292969"/><stop stop-opacity="1" stop-color="rgb(25.898743%, 51.220703%, 79.014587%)" offset="0.296875"/><stop stop-opacity="1" stop-color="rgb(25.718689%, 51.014709%, 78.814697%)" offset="0.304688"/><stop stop-opacity="1" stop-color="rgb(25.518799%, 50.823975%, 78.799438%)" offset="0.308594"/><stop stop-opacity="1" stop-color="rgb(25.498962%, 50.602722%, 78.778076%)" offset="0.3125"/><stop stop-opacity="1" stop-color="rgb(25.498962%, 50.367737%, 78.578186%)" offset="0.316406"/><stop stop-opacity="1" stop-color="rgb(25.498962%, 49.987793%, 78.393555%)" offset="0.324219"/><stop stop-opacity="1" stop-color="rgb(25.498962%, 49.797058%, 78.193665%)" offset="0.328125"/><stop stop-opacity="1" stop-color="rgb(25.498962%, 49.60022%, 77.999878%)" offset="0.332031"/><stop stop-opacity="1" stop-color="rgb(25.306702%, 49.401855%, 77.999878%)" offset="0.335938"/><stop stop-opacity="1" stop-color="rgb(25.106812%, 49.211121%, 77.999878%)" offset="0.339844"/><stop stop-opacity="1" stop-color="rgb(25.099182%, 49.01123%, 77.816772%)" offset="0.34375"/><stop stop-opacity="1" stop-color="rgb(25.099182%, 48.820496%, 77.615356%)" offset="0.347656"/><stop stop-opacity="1" stop-color="rgb(25.099182%, 48.597717%, 77.449036%)" offset="0.351562"/><stop stop-opacity="1" stop-color="rgb(25.099182%, 48.374939%, 77.279663%)" offset="0.355469"/><stop stop-opacity="1" stop-color="rgb(25.099182%, 48.184204%, 77.079773%)" offset="0.359375"/><stop stop-opacity="1" stop-color="rgb(25.090027%, 47.984314%, 76.899719%)" offset="0.363281"/><stop stop-opacity="1" stop-color="rgb(24.890137%, 47.795105%, 76.895142%)" offset="0.367188"/><stop stop-opacity="1" stop-color="rgb(24.699402%, 47.645569%, 76.695251%)" offset="0.371094"/><stop stop-opacity="1" stop-color="rgb(24.508667%, 47.30835%, 76.499939%)" offset="0.378906"/><stop stop-opacity="1" stop-color="rgb(24.308777%, 46.92688%, 76.318359%)" offset="0.382812"/><stop stop-opacity="1" stop-color="rgb(24.299622%, 46.717834%, 76.116943%)" offset="0.390625"/><stop stop-opacity="1" stop-color="rgb(24.299622%, 46.499634%, 76.077271%)" offset="0.394531"/><stop stop-opacity="1" stop-color="rgb(24.299622%, 46.286011%, 75.87738%)" offset="0.398438"/><stop stop-opacity="1" stop-color="rgb(24.299622%, 46.086121%, 75.691223%)" offset="0.40625"/><stop stop-opacity="1" stop-color="rgb(24.29657%, 45.895386%, 75.491333%)" offset="0.410156"/><stop stop-opacity="1" stop-color="rgb(24.098206%, 45.697021%, 75.299072%)" offset="0.414062"/><stop stop-opacity="1" stop-color="rgb(23.901367%, 45.306396%, 75.299072%)" offset="0.417969"/><stop stop-opacity="1" stop-color="rgb(23.899841%, 45.10498%, 75.109863%)" offset="0.421875"/><stop stop-opacity="1" stop-color="rgb(23.899841%, 44.914246%, 74.909973%)" offset="0.425781"/><stop stop-opacity="1" stop-color="rgb(23.899841%, 44.540405%, 74.723816%)" offset="0.429688"/><stop stop-opacity="1" stop-color="rgb(23.899841%, 44.32373%, 74.504089%)" offset="0.4375"/><stop stop-opacity="1" stop-color="rgb(23.883057%, 44.282532%, 74.278259%)" offset="0.441406"/><stop stop-opacity="1" stop-color="rgb(23.683167%, 44.076538%, 74.099731%)" offset="0.445312"/><stop stop-opacity="1" stop-color="rgb(23.497009%, 43.693542%, 74.098206%)" offset="0.453125"/><stop stop-opacity="1" stop-color="rgb(23.300171%, 43.499756%, 73.901367%)" offset="0.457031"/><stop stop-opacity="1" stop-color="rgb(23.101807%, 43.307495%, 73.703003%)" offset="0.460938"/><stop stop-opacity="1" stop-color="rgb(23.098755%, 43.107605%, 73.516846%)" offset="0.464844"/><stop stop-opacity="1" stop-color="rgb(23.098755%, 42.921448%, 73.31543%)" offset="0.472656"/><stop stop-opacity="1" stop-color="rgb(23.098755%, 42.570496%, 73.275757%)" offset="0.476562"/><stop stop-opacity="1" stop-color="rgb(23.098755%, 42.379761%, 73.075867%)" offset="0.480469"/><stop stop-opacity="1" stop-color="rgb(23.098755%, 42.170715%, 72.889709%)" offset="0.484375"/><stop stop-opacity="1" stop-color="rgb(23.094177%, 41.789246%, 72.689819%)" offset="0.492188"/><stop stop-opacity="1" stop-color="rgb(22.894287%, 41.598511%, 72.499084%)" offset="0.496094"/><stop stop-opacity="1" stop-color="rgb(22.698975%, 41.407776%, 72.499084%)" offset="0.503906"/><stop stop-opacity="1" stop-color="rgb(22.698975%, 41.207886%, 72.358704%)" offset="0.507812"/><stop stop-opacity="1" stop-color="rgb(22.698975%, 41.017151%, 72.209167%)" offset="0.511719"/><stop stop-opacity="1" stop-color="rgb(22.566223%, 40.817261%, 72.021484%)" offset="0.515625"/><stop stop-opacity="1" stop-color="rgb(22.416687%, 40.59906%, 71.821594%)" offset="0.519531"/><stop stop-opacity="1" stop-color="rgb(22.399902%, 40.39917%, 71.781921%)" offset="0.523438"/><stop stop-opacity="1" stop-color="rgb(22.399902%, 40.386963%, 71.582031%)" offset="0.527344"/><stop stop-opacity="1" stop-color="rgb(22.399902%, 40.187073%, 71.398926%)" offset="0.53125"/><stop stop-opacity="1" stop-color="rgb(22.399902%, 39.996338%, 71.398926%)" offset="0.535156"/><stop stop-opacity="1" stop-color="rgb(22.399902%, 39.797974%, 71.398926%)" offset="0.539062"/><stop stop-opacity="1" stop-color="rgb(22.206116%, 39.601135%, 71.205139%)" offset="0.542969"/><stop stop-opacity="1" stop-color="rgb(22.0047%, 39.4104%, 71.005249%)" offset="0.546875"/><stop stop-opacity="1" stop-color="rgb(21.998596%, 39.21051%, 70.814514%)" offset="0.550781"/><stop stop-opacity="1" stop-color="rgb(21.998596%, 39.019775%, 70.614624%)" offset="0.554688"/><stop stop-opacity="1" stop-color="rgb(21.998596%, 38.818359%, 70.599365%)" offset="0.558594"/><stop stop-opacity="1" stop-color="rgb(21.998596%, 38.598633%, 70.578003%)" offset="0.5625"/><stop stop-opacity="1" stop-color="rgb(21.998596%, 38.383484%, 70.378113%)" offset="0.566406"/><stop stop-opacity="1" stop-color="rgb(21.99707%, 38.182068%, 70.198059%)" offset="0.570312"/><stop stop-opacity="1" stop-color="rgb(21.800232%, 37.800598%, 70.001221%)" offset="0.582031"/><stop stop-opacity="1" stop-color="rgb(21.601868%, 37.451172%, 69.619751%)" offset="0.585938"/><stop stop-opacity="1" stop-color="rgb(21.420288%, 37.298584%, 69.415283%)" offset="0.597656"/><stop stop-opacity="1" stop-color="rgb(21.220398%, 37.098694%, 69.198608%)" offset="0.601562"/><stop stop-opacity="1" stop-color="rgb(21.199036%, 36.880493%, 68.998718%)" offset="0.605469"/><stop stop-opacity="1" stop-color="rgb(21.199036%, 36.680603%, 68.984985%)" offset="0.609375"/><stop stop-opacity="1" stop-color="rgb(21.199036%, 36.489868%, 68.785095%)" offset="0.613281"/><stop stop-opacity="1" stop-color="rgb(21.199036%, 36.289978%, 68.598938%)" offset="0.617188"/><stop stop-opacity="1" stop-color="rgb(21.199036%, 36.099243%, 68.598938%)" offset="0.621094"/><stop stop-opacity="1" stop-color="rgb(21.199036%, 35.903931%, 68.403625%)" offset="0.625"/><stop stop-opacity="1" stop-color="rgb(21.199036%, 35.704041%, 68.203735%)" offset="0.628906"/><stop stop-opacity="1" stop-color="rgb(21.199036%, 35.517883%, 68.199158%)" offset="0.636719"/><stop stop-opacity="1" stop-color="rgb(21.022034%, 35.317993%, 68.022156%)" offset="0.640625"/><stop stop-opacity="1" stop-color="rgb(20.822144%, 35.099792%, 67.822266%)" offset="0.644531"/><stop stop-opacity="1" stop-color="rgb(20.799255%, 34.886169%, 67.790222%)" offset="0.648438"/><stop stop-opacity="1" stop-color="rgb(20.799255%, 34.683228%, 67.63916%)" offset="0.65625"/><stop stop-opacity="1" stop-color="rgb(20.799255%, 34.29718%, 67.498779%)" offset="0.664062"/><stop stop-opacity="1" stop-color="rgb(20.605469%, 34.100342%, 67.304993%)" offset="0.667969"/><stop stop-opacity="1" stop-color="rgb(20.405579%, 33.914185%, 67.105103%)" offset="0.671875"/><stop stop-opacity="1" stop-color="rgb(20.399475%, 33.714294%, 66.918945%)" offset="0.679688"/><stop stop-opacity="1" stop-color="rgb(20.399475%, 33.52356%, 66.719055%)" offset="0.683594"/><stop stop-opacity="1" stop-color="rgb(20.399475%, 33.303833%, 66.499329%)" offset="0.6875"/><stop stop-opacity="1" stop-color="rgb(20.399475%, 33.067322%, 66.299438%)" offset="0.691406"/><stop stop-opacity="1" stop-color="rgb(20.393372%, 32.688904%, 66.293335%)" offset="0.699219"/><stop stop-opacity="1" stop-color="rgb(20.193481%, 32.348633%, 66.093445%)" offset="0.703125"/><stop stop-opacity="1" stop-color="rgb(19.999695%, 32.199097%, 65.716553%)" offset="0.71875"/><stop stop-opacity="1" stop-color="rgb(19.999695%, 32.020569%, 65.516663%)" offset="0.722656"/><stop stop-opacity="1" stop-color="rgb(19.999695%, 31.797791%, 65.475464%)" offset="0.726562"/><stop stop-opacity="1" stop-color="rgb(19.979858%, 31.575012%, 65.275574%)" offset="0.730469"/><stop stop-opacity="1" stop-color="rgb(19.779968%, 31.390381%, 65.089417%)" offset="0.734375"/><stop stop-opacity="1" stop-color="rgb(19.599915%, 31.190491%, 64.889526%)" offset="0.742188"/><stop stop-opacity="1" stop-color="rgb(19.599915%, 30.804443%, 64.503479%)" offset="0.75"/><stop stop-opacity="1" stop-color="rgb(19.599915%, 30.604553%, 64.303589%)" offset="0.753906"/><stop stop-opacity="1" stop-color="rgb(19.599915%, 30.413818%, 64.299011%)" offset="0.757812"/><stop stop-opacity="1" stop-color="rgb(19.599915%, 30.212402%, 64.299011%)" offset="0.761719"/><stop stop-opacity="1" stop-color="rgb(19.599915%, 30.198669%, 64.122009%)" offset="0.765625"/><stop stop-opacity="1" stop-color="rgb(19.398499%, 29.998779%, 63.922119%)" offset="0.769531"/><stop stop-opacity="1" stop-color="rgb(19.198608%, 29.798889%, 63.899231%)" offset="0.773438"/><stop stop-opacity="1" stop-color="rgb(19.198608%, 29.786682%, 63.887024%)" offset="0.777344"/><stop stop-opacity="1" stop-color="rgb(19.198608%, 29.586792%, 63.687134%)" offset="0.78125"/><stop stop-opacity="1" stop-color="rgb(19.198608%, 29.396057%, 63.499451%)" offset="0.785156"/><stop stop-opacity="1" stop-color="rgb(19.198608%, 29.197693%, 63.499451%)" offset="0.789062"/><stop stop-opacity="1" stop-color="rgb(19.198608%, 29.000854%, 63.305664%)" offset="0.792969"/><stop stop-opacity="1" stop-color="rgb(19.198608%, 28.999329%, 63.105774%)" offset="0.796875"/><stop stop-opacity="1" stop-color="rgb(19.198608%, 28.814697%, 63.09967%)" offset="0.800781"/><stop stop-opacity="1" stop-color="rgb(19.198608%, 28.614807%, 63.09967%)" offset="0.804688"/><stop stop-opacity="1" stop-color="rgb(19.198608%, 28.599548%, 62.924194%)" offset="0.808594"/><stop stop-opacity="1" stop-color="rgb(18.998718%, 28.399658%, 62.709045%)" offset="0.8125"/><stop stop-opacity="1" stop-color="rgb(18.798828%, 28.182983%, 62.533569%)" offset="0.816406"/><stop stop-opacity="1" stop-color="rgb(18.798828%, 27.978516%, 62.393188%)" offset="0.820312"/><stop stop-opacity="1" stop-color="rgb(18.798828%, 27.644348%, 62.193298%)" offset="0.828125"/><stop stop-opacity="1" stop-color="rgb(18.798828%, 27.311707%, 61.999512%)" offset="0.835938"/><stop stop-opacity="1" stop-color="rgb(18.615723%, 27.111816%, 61.816406%)" offset="0.84375"/><stop stop-opacity="1" stop-color="rgb(18.415833%, 27.099609%, 61.616516%)" offset="0.847656"/><stop stop-opacity="1" stop-color="rgb(18.399048%, 26.899719%, 61.599731%)" offset="0.851562"/><stop stop-opacity="1" stop-color="rgb(18.399048%, 26.699829%, 61.579895%)" offset="0.855469"/><stop stop-opacity="1" stop-color="rgb(18.399048%, 26.68457%, 61.380005%)" offset="0.859375"/><stop stop-opacity="1" stop-color="rgb(18.399048%, 26.48468%, 61.193848%)" offset="0.863281"/><stop stop-opacity="1" stop-color="rgb(18.399048%, 26.10321%, 60.993958%)" offset="0.871094"/><stop stop-opacity="1" stop-color="rgb(18.399048%, 25.90332%, 60.798645%)" offset="0.878906"/><stop stop-opacity="1" stop-color="rgb(18.399048%, 25.712585%, 60.612488%)" offset="0.882812"/><stop stop-opacity="1" stop-color="rgb(18.399048%, 25.512695%, 60.412598%)" offset="0.886719"/><stop stop-opacity="1" stop-color="rgb(18.399048%, 25.498962%, 60.398865%)" offset="0.890625"/><stop stop-opacity="1" stop-color="rgb(18.199158%, 25.299072%, 60.198975%)" offset="0.894531"/><stop stop-opacity="1" stop-color="rgb(17.999268%, 25.099182%, 59.999084%)" offset="0.898438"/><stop stop-opacity="1" stop-color="rgb(17.999268%, 25.086975%, 59.986877%)" offset="0.902344"/><stop stop-opacity="1" stop-color="rgb(17.999268%, 24.887085%, 59.786987%)" offset="0.90625"/><stop stop-opacity="1" stop-color="rgb(17.999268%, 24.505615%, 59.599304%)" offset="0.917969"/><stop stop-opacity="1" stop-color="rgb(17.999268%, 24.305725%, 59.410095%)" offset="0.921875"/><stop stop-opacity="1" stop-color="rgb(17.999268%, 24.119568%, 59.210205%)" offset="0.925781"/><stop stop-opacity="1" stop-color="rgb(17.823792%, 23.919678%, 59.199524%)" offset="0.933594"/><stop stop-opacity="1" stop-color="rgb(17.623901%, 23.698425%, 58.999634%)" offset="0.9375"/><stop stop-opacity="1" stop-color="rgb(17.599487%, 23.483276%, 58.799744%)" offset="0.941406"/><stop stop-opacity="1" stop-color="rgb(17.599487%, 23.283386%, 58.787537%)" offset="0.945312"/><stop stop-opacity="1" stop-color="rgb(17.599487%, 23.098755%, 58.587646%)" offset="0.949219"/><stop stop-opacity="1" stop-color="rgb(17.599487%, 22.906494%, 58.399963%)" offset="0.960938"/><stop stop-opacity="1" stop-color="rgb(17.459106%, 22.706604%, 58.21228%)" offset="0.964844"/><stop stop-opacity="1" stop-color="rgb(17.308044%, 22.564697%, 58.010864%)" offset="0.96875"/><stop stop-opacity="1" stop-color="rgb(17.298889%, 22.415161%, 57.798767%)" offset="0.976562"/><stop stop-opacity="1" stop-color="rgb(17.298889%, 22.380066%, 57.598877%)" offset="0.980469"/><stop stop-opacity="1" stop-color="rgb(17.298889%, 22.180176%, 57.449341%)" offset="0.984375"/><stop stop-opacity="1" stop-color="rgb(17.298889%, 21.998596%, 57.299805%)" offset="1"/></radialGradient><clipPath id="95b93239c9"><path d="M 141.796875 133 L 244.347656 133 L 244.347656 183.546875 L 141.796875 183.546875 Z M 141.796875 133 " clip-rule="nonzero"/></clipPath><clipPath id="6756995b78"><path d="M 203.953125 176.796875 C 203.953125 176.796875 204.117188 176.898438 204.429688 177.09375 C 204.738281 177.300781 205.21875 177.566406 205.832031 177.914062 C 207.074219 178.589844 208.972656 179.453125 211.46875 180.0625 C 213.957031 180.648438 217.113281 180.929688 220.484375 180.285156 C 220.933594 180.191406 221.429688 180.125 221.855469 180.011719 C 222.257812 179.894531 222.671875 179.773438 223.089844 179.652344 C 223.5 179.558594 223.933594 179.347656 224.363281 179.195312 C 224.796875 179.027344 225.238281 178.871094 225.65625 178.644531 C 227.378906 177.863281 229.050781 176.769531 230.574219 175.417969 C 233.628906 172.746094 236.121094 168.929688 237.042969 164.53125 C 237.136719 163.984375 237.226562 163.429688 237.316406 162.871094 C 237.382812 162.3125 237.402344 161.742188 237.457031 161.175781 L 237.46875 161.015625 C 237.464844 161.078125 237.480469 160.808594 237.464844 161.136719 L 237.457031 160.886719 L 237.449219 160.382812 L 237.429688 159.371094 C 237.449219 158.621094 237.3125 158.199219 237.25 157.652344 L 237.140625 156.867188 L 236.933594 156.019531 L 236.734375 155.167969 C 236.679688 154.878906 236.550781 154.613281 236.464844 154.332031 C 236.117188 153.214844 235.617188 152.136719 235.054688 151.097656 C 233.898438 149.027344 232.351562 147.136719 230.476562 145.597656 C 228.605469 144.066406 226.421875 142.882812 224.089844 142.15625 C 223.496094 142.007812 222.902344 141.855469 222.308594 141.707031 L 220.488281 141.4375 C 219.875 141.382812 219.253906 141.390625 218.640625 141.351562 L 218.410156 141.339844 C 218.261719 141.34375 218.546875 141.335938 218.492188 141.339844 L 218.421875 141.339844 L 218.28125 141.347656 L 217.710938 141.367188 L 216.578125 141.414062 L 216.292969 141.421875 C 216.207031 141.429688 216.140625 141.441406 216.0625 141.449219 L 215.605469 141.503906 L 214.691406 141.605469 C 214.070312 141.683594 213.390625 141.828125 212.742188 141.933594 C 212.089844 142.070312 211.441406 142.242188 210.789062 142.394531 L 208.855469 142.980469 C 203.695312 144.675781 198.824219 147.648438 194.242188 151.03125 C 193.097656 151.878906 191.972656 152.761719 190.863281 153.664062 C 189.75 154.554688 188.628906 155.484375 187.546875 156.40625 C 185.359375 158.269531 183.21875 160.1875 181.050781 162.054688 C 178.894531 163.914062 176.730469 165.804688 174.546875 167.539062 C 172.328125 169.300781 170.027344 171.046875 167.453125 172.421875 C 164.90625 173.808594 162.054688 174.839844 159.136719 175.113281 C 158.773438 175.164062 158.40625 175.15625 158.042969 175.175781 L 157.503906 175.195312 C 157.613281 175.191406 157.277344 175.199219 157.289062 175.195312 L 157.234375 175.191406 L 156.894531 175.167969 C 156.589844 175.148438 156.292969 175.128906 155.992188 175.109375 C 155.648438 175.074219 155.230469 175.003906 154.855469 174.949219 C 154.058594 174.847656 153.429688 174.628906 152.75 174.449219 C 152.09375 174.226562 151.453125 173.980469 150.847656 173.695312 C 148.425781 172.519531 146.4375 170.863281 144.984375 168.980469 C 143.550781 167.082031 142.609375 164.996094 142.179688 162.960938 C 141.742188 160.933594 141.789062 158.917969 142.09375 157.277344 C 142.382812 155.5625 142.914062 154.085938 143.515625 152.820312 C 144.121094 151.554688 144.808594 150.519531 145.480469 149.6875 C 146.148438 148.855469 146.777344 148.207031 147.316406 147.722656 C 147.582031 147.472656 147.828125 147.273438 148.046875 147.101562 C 148.257812 146.925781 148.445312 146.789062 148.597656 146.683594 C 148.898438 146.46875 149.054688 146.355469 149.054688 146.355469 C 149.054688 146.355469 148.925781 146.5 148.683594 146.777344 C 148.4375 147.050781 148.09375 147.476562 147.679688 148.046875 C 146.84375 149.175781 145.78125 150.976562 145.101562 153.417969 C 144.78125 154.632812 144.53125 156.019531 144.535156 157.496094 C 144.527344 159.035156 144.726562 160.535156 145.308594 162.066406 C 145.890625 163.582031 146.808594 165.0625 148.070312 166.320312 C 149.34375 167.566406 150.9375 168.589844 152.71875 169.191406 C 152.929688 169.289062 153.171875 169.316406 153.394531 169.382812 C 153.625 169.4375 153.84375 169.523438 154.078125 169.554688 C 154.539062 169.617188 155.039062 169.738281 155.429688 169.722656 C 155.644531 169.730469 155.8125 169.757812 156.066406 169.761719 C 156.367188 169.75 156.667969 169.738281 156.96875 169.726562 L 157.308594 169.714844 L 157.367188 169.710938 C 157.417969 169.710938 157.121094 169.710938 157.269531 169.707031 L 157.636719 169.652344 C 157.878906 169.609375 158.125 169.597656 158.371094 169.53125 C 160.324219 169.128906 162.296875 168.265625 164.222656 166.972656 C 166.15625 165.703125 168.066406 164.085938 170.003906 162.28125 C 171.972656 160.4375 173.953125 158.5625 175.988281 156.570312 C 178.011719 154.582031 180.113281 152.5625 182.308594 150.53125 C 184.496094 148.496094 186.808594 146.472656 189.277344 144.550781 C 194.179688 140.691406 199.789062 137.171875 206.191406 135.003906 C 209.414062 133.957031 212.703125 133.277344 216.289062 133.085938 L 217.421875 133.050781 L 217.988281 133.035156 L 218.132812 133.027344 L 218.203125 133.027344 C 218.195312 133.027344 218.527344 133.023438 218.425781 133.027344 L 218.761719 133.042969 C 219.652344 133.101562 220.546875 133.132812 221.429688 133.238281 C 222.308594 133.382812 223.191406 133.519531 224.058594 133.695312 C 224.917969 133.929688 225.773438 134.164062 226.621094 134.414062 C 233.367188 136.660156 238.839844 141.71875 241.683594 147.707031 C 242.390625 149.207031 242.988281 150.742188 243.386719 152.320312 C 243.484375 152.710938 243.621094 153.09375 243.683594 153.492188 L 243.890625 154.683594 C 243.953125 155.078125 244.015625 155.472656 244.078125 155.863281 C 244.117188 156.28125 244.136719 156.707031 244.164062 157.125 C 244.203125 157.945312 244.28125 158.875 244.210938 159.480469 L 244.15625 160.492188 L 244.128906 160.996094 L 244.117188 161.246094 C 244.101562 161.617188 244.105469 161.390625 244.101562 161.492188 L 244.089844 161.5625 L 244.070312 161.707031 C 243.953125 162.46875 243.859375 163.226562 243.714844 163.96875 C 243.53125 164.707031 243.355469 165.4375 243.152344 166.152344 C 242.277344 169.007812 240.917969 171.59375 239.246094 173.792969 C 237.574219 175.988281 235.625 177.824219 233.546875 179.257812 C 231.464844 180.683594 229.292969 181.769531 227.113281 182.421875 C 226.582031 182.621094 226.03125 182.738281 225.496094 182.867188 C 224.949219 182.984375 224.453125 183.140625 223.886719 183.203125 C 223.339844 183.277344 222.804688 183.355469 222.273438 183.425781 C 221.757812 183.484375 221.3125 183.472656 220.839844 183.496094 C 216.828125 183.65625 213.464844 182.757812 210.933594 181.65625 C 208.386719 180.542969 206.671875 179.222656 205.558594 178.3125 C 205.007812 177.839844 204.605469 177.460938 204.351562 177.195312 C 204.089844 176.933594 203.953125 176.796875 203.953125 176.796875 Z M 203.953125 176.796875 " clip-rule="nonzero"/></clipPath><clipPath id="ed83529269"><path d="M 203.953125 176.796875 C 203.953125 176.796875 204.117188 176.898438 204.429688 177.09375 C 204.738281 177.300781 205.21875 177.566406 205.832031 177.914062 C 207.074219 178.589844 208.972656 179.453125 211.46875 180.0625 C 213.957031 180.648438 217.113281 180.929688 220.484375 180.285156 C 220.933594 180.191406 221.429688 180.125 221.855469 180.011719 C 222.257812 179.894531 222.671875 179.773438 223.089844 179.652344 C 223.5 179.558594 223.933594 179.347656 224.363281 179.195312 C 224.796875 179.027344 225.238281 178.871094 225.65625 178.644531 C 227.378906 177.863281 229.050781 176.769531 230.574219 175.417969 C 233.628906 172.746094 236.121094 168.929688 237.042969 164.53125 C 237.136719 163.984375 237.226562 163.429688 237.316406 162.871094 C 237.382812 162.3125 237.402344 161.742188 237.457031 161.175781 L 237.46875 161.015625 C 237.464844 161.078125 237.480469 160.808594 237.464844 161.136719 L 237.457031 160.886719 L 237.449219 160.382812 L 237.429688 159.371094 C 237.449219 158.621094 237.3125 158.199219 237.25 157.652344 L 237.140625 156.867188 L 236.933594 156.019531 L 236.734375 155.167969 C 236.679688 154.878906 236.550781 154.613281 236.464844 154.332031 C 236.117188 153.214844 235.617188 152.136719 235.054688 151.097656 C 233.898438 149.027344 232.351562 147.136719 230.476562 145.597656 C 228.605469 144.066406 226.421875 142.882812 224.089844 142.15625 C 223.496094 142.007812 222.902344 141.855469 222.308594 141.707031 L 220.488281 141.4375 C 219.875 141.382812 219.253906 141.390625 218.640625 141.351562 L 218.410156 141.339844 C 218.261719 141.34375 218.546875 141.335938 218.492188 141.339844 L 218.421875 141.339844 L 218.28125 141.347656 L 217.710938 141.367188 L 216.578125 141.414062 L 216.292969 141.421875 C 216.207031 141.429688 216.140625 141.441406 216.0625 141.449219 L 215.605469 141.503906 L 214.691406 141.605469 C 214.070312 141.683594 213.390625 141.828125 212.742188 141.933594 C 212.089844 142.070312 211.441406 142.242188 210.789062 142.394531 L 208.855469 142.980469 C 203.695312 144.675781 198.824219 147.648438 194.242188 151.03125 C 193.097656 151.878906 191.972656 152.761719 190.863281 153.664062 C 189.75 154.554688 188.628906 155.484375 187.546875 156.40625 C 185.359375 158.269531 183.21875 160.1875 181.050781 162.054688 C 178.894531 163.914062 176.730469 165.804688 174.546875 167.539062 C 172.328125 169.300781 170.027344 171.046875 167.453125 172.421875 C 164.90625 173.808594 162.054688 174.839844 159.136719 175.113281 C 158.773438 175.164062 158.40625 175.15625 158.042969 175.175781 L 157.503906 175.195312 C 157.613281 175.191406 157.277344 175.199219 157.289062 175.195312 L 157.234375 175.191406 L 156.894531 175.167969 C 156.589844 175.148438 156.292969 175.128906 155.992188 175.109375 C 155.648438 175.074219 155.230469 175.003906 154.855469 174.949219 C 154.058594 174.847656 153.429688 174.628906 152.75 174.449219 C 152.09375 174.226562 151.453125 173.980469 150.847656 173.695312 C 148.425781 172.519531 146.4375 170.863281 144.984375 168.980469 C 143.550781 167.082031 142.609375 164.996094 142.179688 162.960938 C 141.742188 160.933594 141.789062 158.917969 142.09375 157.277344 C 142.382812 155.5625 142.914062 154.085938 143.515625 152.820312 C 144.121094 151.554688 144.808594 150.519531 145.480469 149.6875 C 146.148438 148.855469 146.777344 148.207031 147.316406 147.722656 C 147.582031 147.472656 147.828125 147.273438 148.046875 147.101562 C 148.257812 146.925781 148.445312 146.789062 148.597656 146.683594 C 148.898438 146.46875 149.054688 146.355469 149.054688 146.355469 C 149.054688 146.355469 148.925781 146.5 148.683594 146.777344 C 148.4375 147.050781 148.09375 147.476562 147.679688 148.046875 C 146.84375 149.175781 145.78125 150.976562 145.101562 153.417969 C 144.78125 154.632812 144.53125 156.019531 144.535156 157.496094 C 144.527344 159.035156 144.726562 160.535156 145.308594 162.066406 C 145.890625 163.582031 146.808594 165.0625 148.070312 166.320312 C 149.34375 167.566406 150.9375 168.589844 152.71875 169.191406 C 152.929688 169.289062 153.171875 169.316406 153.394531 169.382812 C 153.625 169.4375 153.84375 169.523438 154.078125 169.554688 C 154.539062 169.617188 155.039062 169.738281 155.429688 169.722656 C 155.644531 169.730469 155.8125 169.757812 156.066406 169.761719 C 156.367188 169.75 156.667969 169.738281 156.96875 169.726562 L 157.308594 169.714844 L 157.367188 169.710938 C 157.417969 169.710938 157.121094 169.710938 157.269531 169.707031 L 157.636719 169.652344 C 157.878906 169.609375 158.125 169.597656 158.371094 169.53125 C 160.324219 169.128906 162.296875 168.265625 164.222656 166.972656 C 166.15625 165.703125 168.066406 164.085938 170.003906 162.28125 C 171.972656 160.4375 173.953125 158.5625 175.988281 156.570312 C 178.011719 154.582031 180.113281 152.5625 182.308594 150.53125 C 184.496094 148.496094 186.808594 146.472656 189.277344 144.550781 C 194.179688 140.691406 199.789062 137.171875 206.191406 135.003906 C 209.414062 133.957031 212.703125 133.277344 216.289062 133.085938 L 217.421875 133.050781 L 217.988281 133.035156 L 218.132812 133.027344 L 218.203125 133.027344 C 218.195312 133.027344 218.527344 133.023438 218.425781 133.027344 L 218.761719 133.042969 C 219.652344 133.101562 220.546875 133.132812 221.429688 133.238281 C 222.308594 133.382812 223.191406 133.519531 224.058594 133.695312 C 224.917969 133.929688 225.773438 134.164062 226.621094 134.414062 C 233.367188 136.660156 238.839844 141.71875 241.683594 147.707031 C 242.390625 149.207031 242.988281 150.742188 243.386719 152.320312 C 243.484375 152.710938 243.621094 153.09375 243.683594 153.492188 L 243.890625 154.683594 C 243.953125 155.078125 244.015625 155.472656 244.078125 155.863281 C 244.117188 156.28125 244.136719 156.707031 244.164062 157.125 C 244.203125 157.945312 244.28125 158.875 244.210938 159.480469 L 244.15625 160.492188 L 244.128906 160.996094 L 244.117188 161.246094 C 244.101562 161.617188 244.105469 161.390625 244.101562 161.492188 L 244.089844 161.5625 L 244.070312 161.707031 C 243.953125 162.46875 243.859375 163.226562 243.714844 163.96875 C 243.53125 164.707031 243.355469 165.4375 243.152344 166.152344 C 242.277344 169.007812 240.917969 171.59375 239.246094 173.792969 C 237.574219 175.988281 235.625 177.824219 233.546875 179.257812 C 231.464844 180.683594 229.292969 181.769531 227.113281 182.421875 C 226.582031 182.621094 226.03125 182.738281 225.496094 182.867188 C 224.949219 182.984375 224.453125 183.140625 223.886719 183.203125 C 223.339844 183.277344 222.804688 183.355469 222.273438 183.425781 C 221.757812 183.484375 221.3125 183.472656 220.839844 183.496094 C 216.828125 183.65625 213.464844 182.757812 210.933594 181.65625 C 208.386719 180.542969 206.671875 179.222656 205.558594 178.3125 C 205.007812 177.839844 204.605469 177.460938 204.351562 177.195312 C 204.089844 176.933594 203.953125 176.796875 203.953125 176.796875 " clip-rule="nonzero"/></clipPath><clipPath id="568f5a1ebf"><path d="M 267.523438 148.191406 L 172.460938 86.152344 L 118.5 168.488281 L 213.5625 230.523438 Z M 267.523438 148.191406 " clip-rule="nonzero"/></clipPath><radialGradient gradientTransform="matrix(-0.547911, 0.836027, -0.837807, -0.546747, 204.53162, 116.073697)" gradientUnits="userSpaceOnUse" r="94.472343" cx="0" id="e23a0cdf05" cy="0" fx="0" fy="0"><stop stop-opacity="1" stop-color="rgb(0.193787%, 67.799377%, 93.699646%)" offset="0"/><stop stop-opacity="1" stop-color="rgb(0.393677%, 67.658997%, 93.513489%)" offset="0.0078125"/><stop stop-opacity="1" stop-color="rgb(0.39978%, 67.50946%, 93.313599%)" offset="0.0117188"/><stop stop-opacity="1" stop-color="rgb(0.39978%, 67.498779%, 93.299866%)" offset="0.015625"/><stop stop-opacity="1" stop-color="rgb(0.59967%, 67.498779%, 93.299866%)" offset="0.0195312"/><stop stop-opacity="1" stop-color="rgb(0.799561%, 67.481995%, 93.299866%)" offset="0.0234375"/><stop stop-opacity="1" stop-color="rgb(0.799561%, 67.282104%, 93.286133%)" offset="0.0273438"/><stop stop-opacity="1" stop-color="rgb(0.80719%, 67.098999%, 93.086243%)" offset="0.03125"/><stop stop-opacity="1" stop-color="rgb(1.00708%, 67.098999%, 92.89856%)" offset="0.0351562"/><stop stop-opacity="1" stop-color="rgb(1.199341%, 66.90979%, 92.89856%)" offset="0.046875"/><stop stop-opacity="1" stop-color="rgb(1.199341%, 66.7099%, 92.89856%)" offset="0.0507812"/><stop stop-opacity="1" stop-color="rgb(1.199341%, 66.699219%, 92.718506%)" offset="0.0546875"/><stop stop-opacity="1" stop-color="rgb(1.373291%, 66.699219%, 92.518616%)" offset="0.0585938"/><stop stop-opacity="1" stop-color="rgb(1.573181%, 66.677856%, 92.498779%)" offset="0.0625"/><stop stop-opacity="1" stop-color="rgb(1.61438%, 66.477966%, 92.498779%)" offset="0.0664062"/><stop stop-opacity="1" stop-color="rgb(1.81427%, 66.299438%, 92.349243%)" offset="0.0703125"/><stop stop-opacity="1" stop-color="rgb(1.998901%, 66.299438%, 92.199707%)" offset="0.0820312"/><stop stop-opacity="1" stop-color="rgb(2.191162%, 66.107178%, 92.199707%)" offset="0.0859375"/><stop stop-opacity="1" stop-color="rgb(2.391052%, 65.907288%, 92.021179%)" offset="0.0898438"/><stop stop-opacity="1" stop-color="rgb(2.415466%, 65.875244%, 91.821289%)" offset="0.101562"/><stop stop-opacity="1" stop-color="rgb(2.566528%, 65.675354%, 91.799927%)" offset="0.105469"/><stop stop-opacity="1" stop-color="rgb(2.703857%, 65.499878%, 91.793823%)" offset="0.117188"/><stop stop-opacity="1" stop-color="rgb(2.903748%, 65.499878%, 91.593933%)" offset="0.121094"/><stop stop-opacity="1" stop-color="rgb(3.09906%, 65.304565%, 91.398621%)" offset="0.125"/><stop stop-opacity="1" stop-color="rgb(3.09906%, 65.103149%, 91.398621%)" offset="0.128906"/><stop stop-opacity="1" stop-color="rgb(3.09906%, 65.098572%, 91.398621%)" offset="0.140625"/><stop stop-opacity="1" stop-color="rgb(3.29895%, 64.898682%, 91.19873%)" offset="0.144531"/><stop stop-opacity="1" stop-color="rgb(3.49884%, 64.698792%, 90.99884%)" offset="0.148438"/><stop stop-opacity="1" stop-color="rgb(3.511047%, 64.698792%, 90.99884%)" offset="0.152344"/><stop stop-opacity="1" stop-color="rgb(3.710938%, 64.698792%, 90.99884%)" offset="0.15625"/><stop stop-opacity="1" stop-color="rgb(3.898621%, 64.69574%, 90.99884%)" offset="0.160156"/><stop stop-opacity="1" stop-color="rgb(3.898621%, 64.497375%, 90.99884%)" offset="0.164062"/><stop stop-opacity="1" stop-color="rgb(4.092407%, 64.300537%, 90.805054%)" offset="0.167969"/><stop stop-opacity="1" stop-color="rgb(4.292297%, 64.299011%, 90.605164%)" offset="0.171875"/><stop stop-opacity="1" stop-color="rgb(4.299927%, 64.123535%, 90.59906%)" offset="0.183594"/><stop stop-opacity="1" stop-color="rgb(4.319763%, 63.923645%, 90.577698%)" offset="0.1875"/><stop stop-opacity="1" stop-color="rgb(4.525757%, 63.893127%, 90.377808%)" offset="0.191406"/><stop stop-opacity="1" stop-color="rgb(4.905701%, 63.693237%, 90.19928%)" offset="0.203125"/><stop stop-opacity="1" stop-color="rgb(5.28717%, 63.499451%, 90.011597%)" offset="0.214844"/><stop stop-opacity="1" stop-color="rgb(5.487061%, 63.499451%, 89.811707%)" offset="0.21875"/><stop stop-opacity="1" stop-color="rgb(5.499268%, 63.320923%, 89.7995%)" offset="0.222656"/><stop stop-opacity="1" stop-color="rgb(5.499268%, 63.121033%, 89.7995%)" offset="0.226562"/><stop stop-opacity="1" stop-color="rgb(5.499268%, 63.09967%, 89.779663%)" offset="0.230469"/><stop stop-opacity="1" stop-color="rgb(5.513%, 63.084412%, 89.579773%)" offset="0.234375"/><stop stop-opacity="1" stop-color="rgb(5.712891%, 62.884521%, 89.399719%)" offset="0.238281"/><stop stop-opacity="1" stop-color="rgb(6.09436%, 62.69989%, 89.399719%)" offset="0.25"/><stop stop-opacity="1" stop-color="rgb(6.29425%, 62.554932%, 89.205933%)" offset="0.253906"/><stop stop-opacity="1" stop-color="rgb(6.298828%, 62.40387%, 89.006042%)" offset="0.261719"/><stop stop-opacity="1" stop-color="rgb(6.396484%, 62.30011%, 88.999939%)" offset="0.269531"/><stop stop-opacity="1" stop-color="rgb(6.596375%, 62.10022%, 88.893127%)" offset="0.273438"/><stop stop-opacity="1" stop-color="rgb(6.800842%, 61.999512%, 88.691711%)" offset="0.28125"/><stop stop-opacity="1" stop-color="rgb(7.000732%, 61.901855%, 88.598633%)" offset="0.289062"/><stop stop-opacity="1" stop-color="rgb(7.191467%, 61.701965%, 88.50708%)" offset="0.296875"/><stop stop-opacity="1" stop-color="rgb(7.391357%, 61.499023%, 88.30719%)" offset="0.304688"/><stop stop-opacity="1" stop-color="rgb(7.580566%, 61.299133%, 88.198853%)" offset="0.3125"/><stop stop-opacity="1" stop-color="rgb(7.730103%, 61.199951%, 88.095093%)" offset="0.320312"/><stop stop-opacity="1" stop-color="rgb(7.798767%, 61.196899%, 87.895203%)" offset="0.328125"/><stop stop-opacity="1" stop-color="rgb(7.798767%, 61.000061%, 87.799072%)" offset="0.332031"/><stop stop-opacity="1" stop-color="rgb(7.798767%, 60.614014%, 87.658691%)" offset="0.335938"/><stop stop-opacity="1" stop-color="rgb(7.981873%, 60.411072%, 87.509155%)" offset="0.34375"/><stop stop-opacity="1" stop-color="rgb(8.280945%, 60.299683%, 87.5%)" offset="0.347656"/><stop stop-opacity="1" stop-color="rgb(8.49762%, 60.099792%, 87.391663%)" offset="0.355469"/><stop stop-opacity="1" stop-color="rgb(8.702087%, 59.999084%, 87.191772%)" offset="0.363281"/><stop stop-opacity="1" stop-color="rgb(8.901978%, 59.901428%, 87.098694%)" offset="0.371094"/><stop stop-opacity="1" stop-color="rgb(8.999634%, 59.701538%, 87.005615%)" offset="0.378906"/><stop stop-opacity="1" stop-color="rgb(9.100342%, 59.498596%, 86.805725%)" offset="0.386719"/><stop stop-opacity="1" stop-color="rgb(9.300232%, 59.298706%, 86.698914%)" offset="0.394531"/><stop stop-opacity="1" stop-color="rgb(9.503174%, 59.095764%, 86.595154%)" offset="0.402344"/><stop stop-opacity="1" stop-color="rgb(9.703064%, 58.80127%, 86.300659%)" offset="0.410156"/><stop stop-opacity="1" stop-color="rgb(9.889221%, 58.505249%, 86.004639%)" offset="0.425781"/><stop stop-opacity="1" stop-color="rgb(10.076904%, 58.399963%, 85.899353%)" offset="0.433594"/><stop stop-opacity="1" stop-color="rgb(10.284424%, 58.399963%, 85.899353%)" offset="0.4375"/><stop stop-opacity="1" stop-color="rgb(10.496521%, 58.293152%, 85.794067%)" offset="0.441406"/><stop stop-opacity="1" stop-color="rgb(10.699463%, 58.093262%, 85.594177%)" offset="0.449219"/><stop stop-opacity="1" stop-color="rgb(10.899353%, 57.902527%, 85.499573%)" offset="0.457031"/><stop stop-opacity="1" stop-color="rgb(10.998535%, 57.702637%, 85.40802%)" offset="0.464844"/><stop stop-opacity="1" stop-color="rgb(11.097717%, 57.524109%, 85.20813%)" offset="0.472656"/><stop stop-opacity="1" stop-color="rgb(11.297607%, 57.272339%, 84.996033%)" offset="0.480469"/><stop stop-opacity="1" stop-color="rgb(11.497498%, 56.996155%, 84.796143%)" offset="0.496094"/><stop stop-opacity="1" stop-color="rgb(11.697388%, 56.716919%, 84.698486%)" offset="0.503906"/><stop stop-opacity="1" stop-color="rgb(11.975098%, 56.517029%, 84.521484%)" offset="0.515625"/><stop stop-opacity="1" stop-color="rgb(12.184143%, 56.486511%, 84.321594%)" offset="0.519531"/><stop stop-opacity="1" stop-color="rgb(12.358093%, 56.286621%, 84.298706%)" offset="0.53125"/><stop stop-opacity="1" stop-color="rgb(12.5%, 56.098938%, 84.295654%)" offset="0.535156"/><stop stop-opacity="1" stop-color="rgb(12.5%, 56.098938%, 84.09729%)" offset="0.539062"/><stop stop-opacity="1" stop-color="rgb(12.5%, 56.098938%, 83.900452%)" offset="0.542969"/><stop stop-opacity="1" stop-color="rgb(12.5%, 55.909729%, 83.898926%)" offset="0.546875"/><stop stop-opacity="1" stop-color="rgb(12.5%, 55.709839%, 83.898926%)" offset="0.550781"/><stop stop-opacity="1" stop-color="rgb(12.678528%, 55.699158%, 83.898926%)" offset="0.554688"/><stop stop-opacity="1" stop-color="rgb(12.878418%, 55.699158%, 83.898926%)" offset="0.558594"/><stop stop-opacity="1" stop-color="rgb(12.919617%, 55.677795%, 83.699036%)" offset="0.5625"/><stop stop-opacity="1" stop-color="rgb(13.119507%, 55.471802%, 83.499146%)" offset="0.566406"/><stop stop-opacity="1" stop-color="rgb(13.299561%, 55.093384%, 83.49762%)" offset="0.578125"/><stop stop-opacity="1" stop-color="rgb(13.299561%, 54.899597%, 83.300781%)" offset="0.582031"/><stop stop-opacity="1" stop-color="rgb(13.299561%, 54.899597%, 83.102417%)" offset="0.585938"/><stop stop-opacity="1" stop-color="rgb(13.487244%, 54.899597%, 83.099365%)" offset="0.589844"/><stop stop-opacity="1" stop-color="rgb(13.687134%, 54.899597%, 83.099365%)" offset="0.59375"/><stop stop-opacity="1" stop-color="rgb(13.699341%, 54.721069%, 83.099365%)" offset="0.597656"/><stop stop-opacity="1" stop-color="rgb(13.722229%, 54.521179%, 83.074951%)" offset="0.601562"/><stop stop-opacity="1" stop-color="rgb(13.922119%, 54.499817%, 82.875061%)" offset="0.605469"/><stop stop-opacity="1" stop-color="rgb(14.099121%, 54.484558%, 82.699585%)" offset="0.609375"/><stop stop-opacity="1" stop-color="rgb(14.099121%, 54.284668%, 82.699585%)" offset="0.613281"/><stop stop-opacity="1" stop-color="rgb(14.103699%, 54.098511%, 82.699585%)" offset="0.617188"/><stop stop-opacity="1" stop-color="rgb(14.303589%, 54.003906%, 82.548523%)" offset="0.621094"/><stop stop-opacity="1" stop-color="rgb(14.588928%, 53.804016%, 82.398987%)" offset="0.632812"/><stop stop-opacity="1" stop-color="rgb(14.788818%, 53.601074%, 82.299805%)" offset="0.640625"/><stop stop-opacity="1" stop-color="rgb(15.005493%, 53.401184%, 82.099915%)" offset="0.648438"/><stop stop-opacity="1" stop-color="rgb(15.205383%, 53.196716%, 81.999207%)" offset="0.65625"/><stop stop-opacity="1" stop-color="rgb(15.299988%, 52.996826%, 81.90155%)" offset="0.664062"/><stop stop-opacity="1" stop-color="rgb(15.391541%, 52.806091%, 81.70166%)" offset="0.671875"/><stop stop-opacity="1" stop-color="rgb(15.591431%, 52.606201%, 81.599426%)" offset="0.679688"/><stop stop-opacity="1" stop-color="rgb(15.80658%, 52.418518%, 81.491089%)" offset="0.6875"/><stop stop-opacity="1" stop-color="rgb(16.00647%, 52.1698%, 81.193542%)" offset="0.695312"/><stop stop-opacity="1" stop-color="rgb(16.192627%, 51.899719%, 80.900574%)" offset="0.710938"/><stop stop-opacity="1" stop-color="rgb(16.392517%, 51.696777%, 80.799866%)" offset="0.71875"/><stop stop-opacity="1" stop-color="rgb(16.607666%, 51.496887%, 80.690002%)" offset="0.726562"/><stop stop-opacity="1" stop-color="rgb(16.807556%, 51.293945%, 80.488586%)" offset="0.734375"/><stop stop-opacity="1" stop-color="rgb(16.998291%, 51.094055%, 80.39856%)" offset="0.742188"/><stop stop-opacity="1" stop-color="rgb(17.198181%, 50.999451%, 80.39856%)" offset="0.75"/><stop stop-opacity="1" stop-color="rgb(17.298889%, 50.813293%, 80.212402%)" offset="0.757812"/><stop stop-opacity="1" stop-color="rgb(17.448425%, 50.590515%, 80.012512%)" offset="0.761719"/><stop stop-opacity="1" stop-color="rgb(17.599487%, 50.376892%, 79.998779%)" offset="0.773438"/><stop stop-opacity="1" stop-color="rgb(17.599487%, 50.19989%, 79.986572%)" offset="0.777344"/><stop stop-opacity="1" stop-color="rgb(17.599487%, 50.19989%, 79.786682%)" offset="0.78125"/><stop stop-opacity="1" stop-color="rgb(17.599487%, 50.195312%, 79.598999%)" offset="0.785156"/><stop stop-opacity="1" stop-color="rgb(17.599487%, 49.996948%, 79.598999%)" offset="0.789062"/><stop stop-opacity="1" stop-color="rgb(17.793274%, 49.80011%, 79.598999%)" offset="0.792969"/><stop stop-opacity="1" stop-color="rgb(17.993164%, 49.798584%, 79.598999%)" offset="0.796875"/><stop stop-opacity="1" stop-color="rgb(17.999268%, 49.798584%, 79.414368%)" offset="0.800781"/><stop stop-opacity="1" stop-color="rgb(17.999268%, 49.61853%, 79.214478%)" offset="0.804688"/><stop stop-opacity="1" stop-color="rgb(18.173218%, 49.41864%, 79.199219%)" offset="0.808594"/><stop stop-opacity="1" stop-color="rgb(18.383789%, 49.388123%, 79.188538%)" offset="0.8125"/><stop stop-opacity="1" stop-color="rgb(18.608093%, 49.188232%, 78.988647%)" offset="0.816406"/><stop stop-opacity="1" stop-color="rgb(18.798828%, 48.997498%, 78.799438%)" offset="0.824219"/><stop stop-opacity="1" stop-color="rgb(18.798828%, 48.802185%, 78.799438%)" offset="0.832031"/><stop stop-opacity="1" stop-color="rgb(18.989563%, 48.602295%, 78.607178%)" offset="0.839844"/><stop stop-opacity="1" stop-color="rgb(19.189453%, 48.497009%, 78.407288%)" offset="0.847656"/><stop stop-opacity="1" stop-color="rgb(19.198608%, 48.297119%, 78.399658%)" offset="0.851562"/><stop stop-opacity="1" stop-color="rgb(19.303894%, 48.094177%, 78.294373%)" offset="0.859375"/><stop stop-opacity="1" stop-color="rgb(19.503784%, 47.894287%, 78.094482%)" offset="0.867188"/><stop stop-opacity="1" stop-color="rgb(19.784546%, 47.659302%, 77.999878%)" offset="0.882812"/><stop stop-opacity="1" stop-color="rgb(19.984436%, 47.509766%, 77.818298%)" offset="0.886719"/><stop stop-opacity="1" stop-color="rgb(19.999695%, 47.499084%, 77.616882%)" offset="0.890625"/><stop stop-opacity="1" stop-color="rgb(20.021057%, 47.476196%, 77.598572%)" offset="0.894531"/><stop stop-opacity="1" stop-color="rgb(20.220947%, 47.273254%, 77.449036%)" offset="0.898438"/><stop stop-opacity="1" stop-color="rgb(20.399475%, 46.896362%, 77.2995%)" offset="0.910156"/><stop stop-opacity="1" stop-color="rgb(20.593262%, 46.699524%, 77.2995%)" offset="0.917969"/><stop stop-opacity="1" stop-color="rgb(20.793152%, 46.508789%, 77.108765%)" offset="0.925781"/><stop stop-opacity="1" stop-color="rgb(20.799255%, 46.289062%, 76.908875%)" offset="0.933594"/><stop stop-opacity="1" stop-color="rgb(20.799255%, 46.078491%, 76.899719%)" offset="0.941406"/><stop stop-opacity="1" stop-color="rgb(20.809937%, 45.899963%, 76.899719%)" offset="0.945312"/><stop stop-opacity="1" stop-color="rgb(21.009827%, 45.892334%, 76.89209%)" offset="0.949219"/><stop stop-opacity="1" stop-color="rgb(21.199036%, 45.692444%, 76.6922%)" offset="0.953125"/><stop stop-opacity="1" stop-color="rgb(21.395874%, 45.498657%, 76.499939%)" offset="0.957031"/><stop stop-opacity="1" stop-color="rgb(21.594238%, 45.307922%, 76.499939%)" offset="0.964844"/><stop stop-opacity="1" stop-color="rgb(21.598816%, 45.108032%, 76.321411%)" offset="0.972656"/><stop stop-opacity="1" stop-color="rgb(21.798706%, 45.08667%, 76.119995%)" offset="0.976562"/><stop stop-opacity="1" stop-color="rgb(21.998596%, 44.88678%, 76.098633%)" offset="0.980469"/><stop stop-opacity="1" stop-color="rgb(21.998596%, 44.699097%, 76.094055%)" offset="0.988281"/><stop stop-opacity="1" stop-color="rgb(21.998596%, 44.699097%, 75.894165%)" offset="0.992188"/><stop stop-opacity="1" stop-color="rgb(21.998596%, 44.699097%, 75.698853%)" offset="1"/></radialGradient></defs><g clip-path="url(#a088ee8313)"><g clip-path="url(#fbee5e41a2)"><g clip-path="url(#af8189a33c)"><g clip-path="url(#336dc3d3ee)"><path fill="url(#9f401961f4)" d="M 265.035156 139.582031 L 161.355469 71.921875 L 99.082031 166.9375 L 202.761719 234.601562 Z M 265.035156 139.582031 " fill-rule="nonzero"/></g></g></g></g><g clip-path="url(#95b93239c9)"><g clip-path="url(#6756995b78)"><g clip-path="url(#ed83529269)"><g clip-path="url(#568f5a1ebf)"><path fill="url(#e23a0cdf05)" d="M 267.472656 148.160156 L 172.5 86.179688 L 118.605469 168.410156 L 213.578125 230.390625 Z M 267.472656 148.160156 " fill-rule="nonzero"/></g></g></g></g><g fill="#2b82cd" fill-opacity="1"><g transform="translate(38.34035, 231.433242)"><g><path d="M 13.949219 0.59375 C 21.007812 0.59375 25.34375 -2.765625 25.34375 -8.378906 C 25.34375 -13.097656 22.242188 -15.90625 14.839844 -17.648438 C 10.292969 -18.710938 8.71875 -19.859375 8.71875 -21.6875 C 8.71875 -23.644531 10.460938 -24.835938 13.308594 -24.835938 C 16.414062 -24.835938 18.285156 -23.21875 18.285156 -20.539062 L 24.792969 -20.539062 C 24.792969 -26.535156 20.285156 -30.363281 13.226562 -30.363281 C 6.378906 -30.363281 2.125 -27.003906 2.125 -21.558594 C 2.125 -16.710938 5.402344 -13.820312 12.375 -12.332031 C 16.585938 -11.4375 18.5 -10.207031 18.5 -8.121094 C 18.5 -6.125 16.710938 -4.976562 13.90625 -4.976562 C 10.632812 -4.976562 8.503906 -6.632812 8.503906 -9.484375 L 1.871094 -9.484375 C 1.871094 -3.316406 6.464844 0.59375 13.949219 0.59375 Z M 13.949219 0.59375 "/></g></g></g><g fill="#2b82cd" fill-opacity="1"><g transform="translate(65.167631, 231.433242)"><g><path d="M 3.230469 0 L 9.695312 0 L 9.695312 -8.503906 L 13.183594 -8.503906 L 18.117188 0 L 25.640625 0 L 19.222656 -10.671875 C 20.410156 -11.738281 21.347656 -13.226562 22.070312 -15.222656 L 24.664062 -22.324219 L 17.691406 -22.324219 L 16.117188 -17.476562 C 15.265625 -14.96875 14.074219 -14.289062 11.355469 -14.289062 L 9.695312 -14.289062 L 9.695312 -31.46875 L 3.230469 -31.46875 Z M 3.230469 0 "/></g></g></g><g fill="#2b82cd" fill-opacity="1"><g transform="translate(91.484723, 231.433242)"><g><path d="M 3.316406 8.503906 L 6.335938 8.503906 C 11.523438 8.503906 13.691406 7.230469 15.523438 2.636719 L 25.472656 -22.324219 L 18.539062 -22.324219 L 15.5625 -14.203125 L 13.523438 -8.503906 L 7.527344 -22.324219 L 0.382812 -22.324219 L 10.417969 -0.722656 L 10.164062 0.0429688 C 9.398438 2.253906 8.503906 2.933594 5.867188 2.933594 L 3.316406 2.933594 Z M 3.316406 8.503906 "/></g></g></g><g fill="#5a5a5a" fill-opacity="1"><g transform="translate(122.932525, 231.457089)"><g><path d="M 4.335938 0 L 8.078125 0 L 8.078125 -22.792969 L 17.945312 -7.910156 L 21.007812 -7.910156 L 30.875 -22.75 L 30.875 0 L 34.617188 0 L 34.617188 -29.765625 L 31.128906 -29.765625 L 19.519531 -12.121094 L 7.824219 -29.765625 L 4.335938 -29.765625 Z M 4.335938 0 "/></g></g></g><g fill="#5a5a5a" fill-opacity="1"><g transform="translate(161.451628, 231.457089)"><g><path d="M 11.183594 0.339844 C 14.757812 0.339844 17.5625 -0.808594 19.5625 -3.0625 L 19.945312 0 L 22.878906 0 L 22.878906 -14.035156 C 22.878906 -19.136719 19.007812 -22.625 13.226562 -22.625 C 8.421875 -22.625 4.804688 -20.027344 3.828125 -15.777344 L 7.441406 -15.777344 C 8.164062 -17.945312 10.417969 -19.304688 13.269531 -19.304688 C 17.011719 -19.304688 19.304688 -17.222656 19.304688 -13.777344 L 19.304688 -12.96875 L 10.292969 -12.96875 C 5.699219 -12.96875 2.679688 -10.375 2.679688 -6.378906 C 2.679688 -2.210938 5.867188 0.339844 11.183594 0.339844 Z M 6.25 -6.421875 C 6.25 -8.503906 7.953125 -9.824219 10.417969 -9.824219 L 19.347656 -9.824219 C 19.222656 -5.742188 15.90625 -2.847656 11.3125 -2.847656 C 8.207031 -2.847656 6.25 -4.253906 6.25 -6.421875 Z M 6.25 -6.421875 "/></g></g></g><g fill="#5a5a5a" fill-opacity="1"><g transform="translate(187.386076, 231.457089)"><g><path d="M 3.953125 0 L 7.527344 0 L 7.527344 -10.25 C 7.527344 -16.542969 10.671875 -18.753906 14.671875 -18.753906 L 16.839844 -18.753906 L 16.839844 -22.070312 L 14.839844 -22.070312 C 11.097656 -22.070312 8.886719 -20.878906 7.3125 -18.242188 L 6.890625 -22.070312 L 3.953125 -22.070312 Z M 3.953125 0 "/></g></g></g><g fill="#5a5a5a" fill-opacity="1"><g transform="translate(205.497637, 231.457089)"><g><path d="M 3.953125 0 L 7.527344 0 L 7.527344 -9.527344 L 10.164062 -9.527344 C 11.183594 -9.527344 12.121094 -9.566406 12.96875 -9.738281 L 19.050781 0 L 23.304688 0 L 16.414062 -10.929688 C 18.03125 -11.949219 19.179688 -13.609375 20.070312 -16.03125 L 22.28125 -22.070312 L 18.457031 -22.070312 L 16.796875 -17.351562 C 15.5625 -13.777344 13.863281 -12.84375 10.292969 -12.84375 L 7.527344 -12.84375 L 7.527344 -31.46875 L 3.953125 -31.46875 Z M 3.953125 0 "/></g></g></g><g fill="#5a5a5a" fill-opacity="1"><g transform="translate(229.859017, 231.457089)"><g><path d="M 13.523438 0.554688 C 18.5 0.554688 22.582031 -2.125 24.367188 -6.421875 L 20.328125 -6.421875 C 18.964844 -4.082031 16.457031 -2.808594 13.566406 -2.808594 C 9.355469 -2.808594 6.378906 -5.441406 5.824219 -9.609375 L 24.917969 -9.609375 C 25.175781 -17.308594 20.625 -22.625 13.566406 -22.625 C 6.890625 -22.625 2.210938 -17.859375 2.210938 -11.054688 C 2.210938 -4.210938 6.847656 0.554688 13.523438 0.554688 Z M 5.867188 -12.757812 C 6.507812 -16.667969 9.484375 -19.265625 13.566406 -19.265625 C 17.605469 -19.265625 20.582031 -16.796875 21.347656 -12.757812 Z M 5.867188 -12.757812 "/></g></g></g><g fill="#5a5a5a" fill-opacity="1"><g transform="translate(256.473727, 231.457089)"><g><path d="M 13.480469 0 L 16.796875 0 L 16.796875 -3.445312 L 13.652344 -3.445312 C 10.714844 -3.445312 9.355469 -4.933594 9.355469 -8.121094 L 9.355469 -18.796875 L 16.5 -18.796875 L 16.5 -22.070312 L 9.355469 -22.070312 L 9.355469 -27.554688 L 6.589844 -27.554688 L 6.25 -24.578125 C 5.996094 -22.582031 5.402344 -22.070312 3.359375 -22.070312 L 1.148438 -22.070312 L 1.148438 -18.796875 L 5.785156 -18.796875 L 5.785156 -7.953125 C 5.785156 -2.890625 8.589844 0 13.480469 0 Z M 13.480469 0 "/></g></g></g><g fill="#5a5a5a" fill-opacity="1"><g transform="translate(274.925423, 231.457089)"><g><path d="M 3.953125 0 L 7.527344 0 L 7.527344 -22.070312 L 3.953125 -22.070312 Z M 2.847656 -28.492188 C 2.847656 -26.917969 3.996094 -25.726562 5.742188 -25.726562 C 7.484375 -25.726562 8.589844 -26.917969 8.589844 -28.492188 C 8.589844 -30.109375 7.484375 -31.296875 5.742188 -31.296875 C 3.996094 -31.296875 2.847656 -30.109375 2.847656 -28.492188 Z M 2.847656 -28.492188 "/></g></g></g><g fill="#5a5a5a" fill-opacity="1"><g transform="translate(285.979385, 231.457089)"><g><path d="M 3.953125 0 L 7.527344 0 L 7.527344 -11.140625 C 7.527344 -15.988281 10.460938 -19.222656 14.585938 -19.222656 C 18.457031 -19.222656 20.835938 -16.414062 20.835938 -11.949219 L 20.835938 0 L 24.410156 0 L 24.410156 -12.289062 C 24.410156 -18.582031 20.921875 -22.625 15.054688 -22.625 C 12.078125 -22.625 9.183594 -21.476562 7.273438 -18.839844 L 6.890625 -22.070312 L 3.953125 -22.070312 Z M 3.953125 0 "/></g></g></g><g fill="#5a5a5a" fill-opacity="1"><g transform="translate(313.486918, 231.457089)"><g><path d="M 13.820312 9.058594 C 20.410156 9.058594 24.707031 4.976562 24.707031 -1.277344 L 24.707031 -22.070312 L 21.773438 -22.070312 L 21.390625 -19.09375 C 19.433594 -21.304688 16.542969 -22.625 13.226562 -22.625 C 6.929688 -22.625 2.210938 -17.859375 2.210938 -11.4375 C 2.210938 -4.976562 6.929688 -0.210938 13.226562 -0.210938 C 16.414062 -0.210938 19.179688 -1.445312 21.136719 -3.488281 L 21.136719 -1.402344 C 21.136719 3.148438 18.457031 5.742188 13.820312 5.742188 C 10.207031 5.742188 7.695312 4.082031 7.015625 1.402344 L 3.402344 1.402344 C 4.210938 6.125 8.207031 9.058594 13.820312 9.058594 Z M 5.785156 -11.4375 C 5.785156 -15.945312 9.058594 -19.179688 13.609375 -19.179688 C 18.199219 -19.179688 21.433594 -15.945312 21.433594 -11.4375 C 21.433594 -6.890625 18.199219 -3.699219 13.609375 -3.699219 C 9.058594 -3.699219 5.785156 -6.890625 5.785156 -11.4375 Z M 5.785156 -11.4375 "/></g></g></g><g fill="#5a5a5a" fill-opacity="1"><g transform="translate(27.817351, 254.691034)"><g><path d="M 2.402344 0 L 3.207031 0 L 5.257812 -5.539062 L 6.390625 -2.492188 L 7.320312 0 L 8.121094 0 L 10.347656 -6.839844 L 9.449219 -6.839844 L 7.691406 -1.367188 L 5.667969 -6.839844 L 4.855469 -6.839844 L 2.835938 -1.378906 L 2.03125 -3.890625 L 1.085938 -6.839844 L 0.1875 -6.839844 Z M 2.402344 0 "/></g></g></g><g fill="#5a5a5a" fill-opacity="1"><g transform="translate(46.160186, 254.691034)"><g><path d="M 0.996094 0 L 5.257812 0 L 5.257812 -0.800781 L 1.855469 -0.800781 L 1.855469 -3.089844 L 4.90625 -3.089844 L 4.90625 -3.878906 L 1.855469 -3.878906 L 1.855469 -6.039062 L 5.148438 -6.039062 L 5.148438 -6.839844 L 0.996094 -6.839844 Z M 0.996094 0 "/></g></g></g><g fill="#5a5a5a" fill-opacity="1"><g transform="translate(59.866253, 254.691034)"><g><path d="M 0.996094 0 L 3.773438 0 C 5.148438 0 6.011719 -0.734375 6.011719 -1.914062 C 6.011719 -2.6875 5.628906 -3.265625 4.925781 -3.546875 C 5.480469 -3.832031 5.816406 -4.359375 5.816406 -5.023438 C 5.816406 -6.128906 4.953125 -6.839844 3.644531 -6.839844 L 0.996094 -6.839844 Z M 1.855469 -0.800781 L 1.855469 -3.097656 L 3.742188 -3.097656 C 4.632812 -3.097656 5.128906 -2.675781 5.128906 -1.953125 C 5.128906 -1.222656 4.632812 -0.800781 3.753906 -0.800781 Z M 1.855469 -3.878906 L 1.855469 -6.039062 L 3.625 -6.039062 C 4.457031 -6.039062 4.933594 -5.648438 4.933594 -4.953125 C 4.933594 -4.269531 4.464844 -3.878906 3.625 -3.878906 Z M 1.855469 -3.878906 "/></g></g></g><g fill="#5a5a5a" fill-opacity="1"><g transform="translate(74.236112, 254.691034)"><g/></g></g><g fill="#5a5a5a" fill-opacity="1"><g transform="translate(84.476793, 254.691034)"><g><path d="M 0.996094 0 L 3.363281 0 C 5.460938 0 6.871094 -1.398438 6.871094 -3.421875 C 6.871094 -5.441406 5.460938 -6.839844 3.363281 -6.839844 L 0.996094 -6.839844 Z M 1.855469 -0.820312 L 1.855469 -6.019531 L 3.324219 -6.019531 C 4.914062 -6.019531 5.992188 -4.972656 5.992188 -3.421875 C 5.992188 -1.867188 4.925781 -0.820312 3.363281 -0.820312 Z M 1.855469 -0.820312 "/></g></g></g><g fill="#5a5a5a" fill-opacity="1"><g transform="translate(99.725192, 254.691034)"><g><path d="M 0.996094 0 L 5.257812 0 L 5.257812 -0.800781 L 1.855469 -0.800781 L 1.855469 -3.089844 L 4.90625 -3.089844 L 4.90625 -3.878906 L 1.855469 -3.878906 L 1.855469 -6.039062 L 5.148438 -6.039062 L 5.148438 -6.839844 L 0.996094 -6.839844 Z M 0.996094 0 "/></g></g></g><g fill="#5a5a5a" fill-opacity="1"><g transform="translate(113.431259, 254.691034)"><g><path d="M 3.273438 0.128906 C 4.769531 0.128906 5.738281 -0.605469 5.738281 -1.796875 C 5.738281 -2.804688 5.0625 -3.410156 3.3125 -3.839844 C 1.984375 -4.164062 1.542969 -4.515625 1.542969 -5.082031 C 1.542969 -5.738281 2.128906 -6.148438 3.109375 -6.148438 C 4.113281 -6.148438 4.738281 -5.640625 4.757812 -4.816406 L 5.609375 -4.816406 C 5.601562 -6.148438 4.640625 -6.96875 3.109375 -6.96875 C 1.613281 -6.96875 0.664062 -6.234375 0.664062 -5.082031 C 0.664062 -4.027344 1.417969 -3.441406 3.097656 -3.039062 C 4.328125 -2.746094 4.847656 -2.402344 4.847656 -1.769531 C 4.847656 -1.09375 4.242188 -0.695312 3.273438 -0.695312 C 2.207031 -0.695312 1.464844 -1.222656 1.445312 -2.101562 L 0.585938 -2.101562 C 0.597656 -0.761719 1.640625 0.128906 3.273438 0.128906 Z M 3.273438 0.128906 "/></g></g></g><g fill="#5a5a5a" fill-opacity="1"><g transform="translate(127.566841, 254.691034)"><g><path d="M 0.996094 0 L 1.855469 0 L 1.855469 -6.839844 L 0.996094 -6.839844 Z M 0.996094 0 "/></g></g></g><g fill="#5a5a5a" fill-opacity="1"><g transform="translate(138.237036, 254.691034)"><g><path d="M 4.046875 0.128906 C 6.148438 0.128906 7.5625 -1.464844 7.523438 -3.714844 L 3.8125 -3.714844 L 3.8125 -2.894531 L 6.597656 -2.894531 C 6.421875 -1.601562 5.441406 -0.734375 4.066406 -0.734375 C 2.53125 -0.734375 1.445312 -1.835938 1.445312 -3.421875 C 1.445312 -5.003906 2.519531 -6.109375 4.054688 -6.109375 C 5.109375 -6.109375 5.953125 -5.589844 6.382812 -4.710938 L 7.320312 -4.710938 C 6.878906 -6.058594 5.589844 -6.96875 4.027344 -6.96875 C 2.023438 -6.96875 0.566406 -5.472656 0.566406 -3.421875 C 0.566406 -1.359375 2.03125 0.128906 4.046875 0.128906 Z M 4.046875 0.128906 "/></g></g></g><g fill="#5a5a5a" fill-opacity="1"><g transform="translate(154.110174, 254.691034)"><g><path d="M 0.996094 0 L 1.847656 0 L 1.847656 -5.355469 L 5.628906 0 L 6.429688 0 L 6.429688 -6.839844 L 5.589844 -6.839844 L 5.589844 -1.484375 L 1.808594 -6.839844 L 0.996094 -6.839844 Z M 0.996094 0 "/></g></g></g><g fill="#5a5a5a" fill-opacity="1"><g transform="translate(169.348805, 254.691034)"><g/></g></g><g fill="#5a5a5a" fill-opacity="1"><g transform="translate(179.589493, 254.691034)"><g><path d="M 2.855469 0.128906 C 3.703125 0.128906 4.398438 -0.109375 4.925781 -0.546875 L 5.460938 0 L 6.566406 0 L 5.441406 -1.144531 C 5.816406 -1.699219 6.011719 -2.433594 6.03125 -3.3125 L 5.207031 -3.3125 C 5.199219 -2.695312 5.070312 -2.167969 4.847656 -1.757812 L 3.3125 -3.3125 C 4.476562 -3.761719 5.0625 -4.425781 5.0625 -5.277344 C 5.0625 -6.285156 4.242188 -6.96875 3.050781 -6.96875 C 1.867188 -6.96875 1.066406 -6.3125 1.066406 -5.355469 C 1.066406 -4.75 1.378906 -4.191406 1.914062 -3.605469 C 0.96875 -3.15625 0.527344 -2.550781 0.527344 -1.71875 C 0.527344 -0.558594 1.398438 0.128906 2.855469 0.128906 Z M 1.347656 -1.738281 C 1.347656 -2.285156 1.710938 -2.707031 2.480469 -3.019531 L 4.328125 -1.132812 C 3.957031 -0.832031 3.460938 -0.664062 2.863281 -0.664062 C 1.925781 -0.664062 1.347656 -1.066406 1.347656 -1.738281 Z M 1.867188 -5.363281 C 1.867188 -5.882812 2.324219 -6.214844 3.039062 -6.214844 C 3.78125 -6.214844 4.261719 -5.855469 4.261719 -5.277344 C 4.261719 -4.730469 3.800781 -4.320312 2.726562 -3.929688 C 2.101562 -4.59375 1.867188 -4.992188 1.867188 -5.363281 Z M 1.867188 -5.363281 "/></g></g></g><g fill="#5a5a5a" fill-opacity="1"><g transform="translate(194.330295, 254.691034)"><g/></g></g><g fill="#5a5a5a" fill-opacity="1"><g transform="translate(204.570983, 254.691034)"><g><path d="M 0.996094 0 L 1.855469 0 L 1.855469 -5.238281 L 4.125 -1.816406 L 4.828125 -1.816406 L 7.09375 -5.226562 L 7.09375 0 L 7.953125 0 L 7.953125 -6.839844 L 7.152344 -6.839844 L 4.484375 -2.785156 L 1.796875 -6.839844 L 0.996094 -6.839844 Z M 0.996094 0 "/></g></g></g><g fill="#5a5a5a" fill-opacity="1"><g transform="translate(221.332445, 254.691034)"><g><path d="M 0.167969 0 L 1.085938 0 L 1.710938 -1.554688 L 5.042969 -1.554688 L 5.6875 0 L 6.597656 0 L 3.78125 -6.839844 L 2.980469 -6.839844 Z M 2.042969 -2.355469 L 3.382812 -5.640625 L 4.71875 -2.355469 Z M 2.042969 -2.355469 "/></g></g></g><g fill="#5a5a5a" fill-opacity="1"><g transform="translate(235.907296, 254.691034)"><g><path d="M 0.996094 0 L 1.847656 0 L 1.847656 -5.355469 L 5.628906 0 L 6.429688 0 L 6.429688 -6.839844 L 5.589844 -6.839844 L 5.589844 -1.484375 L 1.808594 -6.839844 L 0.996094 -6.839844 Z M 0.996094 0 "/></g></g></g><g fill="#5a5a5a" fill-opacity="1"><g transform="translate(251.145927, 254.691034)"><g><path d="M 0.167969 0 L 1.085938 0 L 1.710938 -1.554688 L 5.042969 -1.554688 L 5.6875 0 L 6.597656 0 L 3.78125 -6.839844 L 2.980469 -6.839844 Z M 2.042969 -2.355469 L 3.382812 -5.640625 L 4.71875 -2.355469 Z M 2.042969 -2.355469 "/></g></g></g><g fill="#5a5a5a" fill-opacity="1"><g transform="translate(265.720778, 254.691034)"><g><path d="M 4.046875 0.128906 C 6.148438 0.128906 7.5625 -1.464844 7.523438 -3.714844 L 3.8125 -3.714844 L 3.8125 -2.894531 L 6.597656 -2.894531 C 6.421875 -1.601562 5.441406 -0.734375 4.066406 -0.734375 C 2.53125 -0.734375 1.445312 -1.835938 1.445312 -3.421875 C 1.445312 -5.003906 2.519531 -6.109375 4.054688 -6.109375 C 5.109375 -6.109375 5.953125 -5.589844 6.382812 -4.710938 L 7.320312 -4.710938 C 6.878906 -6.058594 5.589844 -6.96875 4.027344 -6.96875 C 2.023438 -6.96875 0.566406 -5.472656 0.566406 -3.421875 C 0.566406 -1.359375 2.03125 0.128906 4.046875 0.128906 Z M 4.046875 0.128906 "/></g></g></g><g fill="#5a5a5a" fill-opacity="1"><g transform="translate(281.593916, 254.691034)"><g><path d="M 0.996094 0 L 5.257812 0 L 5.257812 -0.800781 L 1.855469 -0.800781 L 1.855469 -3.089844 L 4.90625 -3.089844 L 4.90625 -3.878906 L 1.855469 -3.878906 L 1.855469 -6.039062 L 5.148438 -6.039062 L 5.148438 -6.839844 L 0.996094 -6.839844 Z M 0.996094 0 "/></g></g></g><g fill="#5a5a5a" fill-opacity="1"><g transform="translate(295.299977, 254.691034)"><g><path d="M 0.996094 0 L 1.855469 0 L 1.855469 -5.238281 L 4.125 -1.816406 L 4.828125 -1.816406 L 7.09375 -5.226562 L 7.09375 0 L 7.953125 0 L 7.953125 -6.839844 L 7.152344 -6.839844 L 4.484375 -2.785156 L 1.796875 -6.839844 L 0.996094 -6.839844 Z M 0.996094 0 "/></g></g></g><g fill="#5a5a5a" fill-opacity="1"><g transform="translate(312.061428, 254.691034)"><g><path d="M 0.996094 0 L 5.257812 0 L 5.257812 -0.800781 L 1.855469 -0.800781 L 1.855469 -3.089844 L 4.90625 -3.089844 L 4.90625 -3.878906 L 1.855469 -3.878906 L 1.855469 -6.039062 L 5.148438 -6.039062 L 5.148438 -6.839844 L 0.996094 -6.839844 Z M 0.996094 0 "/></g></g></g><g fill="#5a5a5a" fill-opacity="1"><g transform="translate(325.767489, 254.691034)"><g><path d="M 0.996094 0 L 1.847656 0 L 1.847656 -5.355469 L 5.628906 0 L 6.429688 0 L 6.429688 -6.839844 L 5.589844 -6.839844 L 5.589844 -1.484375 L 1.808594 -6.839844 L 0.996094 -6.839844 Z M 0.996094 0 "/></g></g></g><g fill="#5a5a5a" fill-opacity="1"><g transform="translate(341.00612, 254.691034)"><g><path d="M 2.648438 0 L 3.507812 0 L 3.507812 -6.019531 L 5.816406 -6.019531 L 5.816406 -6.839844 L 0.332031 -6.839844 L 0.332031 -6.019531 L 2.648438 -6.019531 Z M 2.648438 0 "/></g></g></g></svg>